<svg width="279" height="94" viewBox="0 0 279 94" fill="none" xmlns="http://www.w3.org/2000/svg">
<rect x="0.5" y="0.5" width="278" height="93" rx="4.5" fill="#F8F8F8" stroke="#DFD8D8"/>
<path d="M85.136 41V23.8203H96.9133V26.7266H88.6047V30.793H95.7766V33.6992H88.6047V41H85.136ZM102.913 41H99.6204V28.5547H102.679V30.3242C103.202 29.4883 103.671 28.9375 104.085 28.6719C104.507 28.4062 104.984 28.2734 105.515 28.2734C106.265 28.2734 106.988 28.4805 107.683 28.8945L106.663 31.7656C106.109 31.4062 105.593 31.2266 105.116 31.2266C104.656 31.2266 104.265 31.3555 103.945 31.6133C103.624 31.8633 103.37 32.3203 103.183 32.9844C103.003 33.6484 102.913 35.0391 102.913 37.1562V41ZM116.32 37.0391L119.601 37.5898C119.179 38.793 118.511 39.7109 117.597 40.3438C116.691 40.9688 115.554 41.2812 114.187 41.2812C112.023 41.2812 110.421 40.5742 109.382 39.1602C108.562 38.0273 108.152 36.5977 108.152 34.8711C108.152 32.8086 108.691 31.1953 109.769 30.0312C110.847 28.8594 112.21 28.2734 113.859 28.2734C115.71 28.2734 117.171 28.8867 118.241 30.1133C119.312 31.332 119.823 33.2031 119.777 35.7266H111.527C111.55 36.7031 111.816 37.4648 112.323 38.0117C112.831 38.5508 113.464 38.8203 114.222 38.8203C114.738 38.8203 115.171 38.6797 115.523 38.3984C115.874 38.1172 116.14 37.6641 116.32 37.0391ZM116.507 33.7109C116.484 32.7578 116.238 32.0352 115.769 31.543C115.3 31.043 114.73 30.793 114.058 30.793C113.339 30.793 112.745 31.0547 112.277 31.5781C111.808 32.1016 111.577 32.8125 111.585 33.7109H116.507ZM129.679 37.0391L132.96 37.5898C132.538 38.793 131.87 39.7109 130.956 40.3438C130.05 40.9688 128.913 41.2812 127.546 41.2812C125.382 41.2812 123.781 40.5742 122.741 39.1602C121.921 38.0273 121.511 36.5977 121.511 34.8711C121.511 32.8086 122.05 31.1953 123.128 30.0312C124.206 28.8594 125.57 28.2734 127.218 28.2734C129.07 28.2734 130.531 28.8867 131.601 30.1133C132.671 31.332 133.183 33.2031 133.136 35.7266H124.886C124.909 36.7031 125.175 37.4648 125.683 38.0117C126.191 38.5508 126.823 38.8203 127.581 38.8203C128.097 38.8203 128.531 38.6797 128.882 38.3984C129.234 38.1172 129.499 37.6641 129.679 37.0391ZM129.866 33.7109C129.843 32.7578 129.597 32.0352 129.128 31.543C128.659 31.043 128.089 30.793 127.417 30.793C126.698 30.793 126.105 31.0547 125.636 31.5781C125.167 32.1016 124.937 32.8125 124.945 33.7109H129.866ZM141.656 35.4102L145.031 35.082C145.234 36.2148 145.644 37.0469 146.261 37.5781C146.886 38.1094 147.726 38.375 148.781 38.375C149.898 38.375 150.738 38.1406 151.3 37.6719C151.87 37.1953 152.156 36.6406 152.156 36.0078C152.156 35.6016 152.034 35.2578 151.792 34.9766C151.558 34.6875 151.144 34.4375 150.55 34.2266C150.144 34.0859 149.218 33.8359 147.773 33.4766C145.913 33.0156 144.609 32.4492 143.859 31.7773C142.804 30.832 142.277 29.6797 142.277 28.3203C142.277 27.4453 142.523 26.6289 143.015 25.8711C143.515 25.1055 144.23 24.5234 145.159 24.125C146.097 23.7266 147.226 23.5273 148.546 23.5273C150.702 23.5273 152.323 24 153.409 24.9453C154.503 25.8906 155.077 27.1523 155.132 28.7305L151.663 28.8828C151.515 28 151.195 27.3672 150.702 26.9844C150.218 26.5938 149.488 26.3984 148.511 26.3984C147.503 26.3984 146.714 26.6055 146.144 27.0195C145.777 27.2852 145.593 27.6406 145.593 28.0859C145.593 28.4922 145.765 28.8398 146.109 29.1289C146.546 29.4961 147.609 29.8789 149.296 30.2773C150.984 30.6758 152.23 31.0898 153.034 31.5195C153.847 31.9414 154.48 32.5234 154.933 33.2656C155.394 34 155.624 34.9102 155.624 35.9961C155.624 36.9805 155.351 37.9023 154.804 38.7617C154.257 39.6211 153.484 40.2617 152.484 40.6836C151.484 41.0977 150.238 41.3047 148.745 41.3047C146.573 41.3047 144.906 40.8047 143.741 39.8047C142.577 38.7969 141.882 37.332 141.656 35.4102ZM161.8 23.8203V30.1367C162.863 28.8945 164.132 28.2734 165.609 28.2734C166.366 28.2734 167.05 28.4141 167.659 28.6953C168.269 28.9766 168.726 29.3359 169.031 29.7734C169.343 30.2109 169.554 30.6953 169.663 31.2266C169.781 31.7578 169.839 32.582 169.839 33.6992V41H166.546V34.4258C166.546 33.1211 166.484 32.293 166.359 31.9414C166.234 31.5898 166.011 31.3125 165.691 31.1094C165.378 30.8984 164.984 30.793 164.507 30.793C163.96 30.793 163.472 30.9258 163.042 31.1914C162.613 31.457 162.296 31.8594 162.093 32.3984C161.898 32.9297 161.8 33.7188 161.8 34.7656V41H158.507V23.8203H161.8ZM173.191 26.8672V23.8203H176.484V26.8672H173.191ZM173.191 41V28.5547H176.484V41H173.191ZM179.777 28.5547H182.847V30.3828C183.245 29.7578 183.784 29.25 184.464 28.8594C185.144 28.4688 185.898 28.2734 186.726 28.2734C188.171 28.2734 189.398 28.8398 190.406 29.9727C191.413 31.1055 191.917 32.6836 191.917 34.707C191.917 36.7852 191.409 38.4023 190.394 39.5586C189.378 40.707 188.148 41.2812 186.702 41.2812C186.015 41.2812 185.39 41.1445 184.827 40.8711C184.273 40.5977 183.687 40.1289 183.07 39.4648V45.7344H179.777V28.5547ZM183.034 34.5664C183.034 35.9648 183.312 37 183.866 37.6719C184.421 38.3359 185.097 38.668 185.894 38.668C186.659 38.668 187.296 38.3633 187.804 37.7539C188.312 37.1367 188.566 36.1289 188.566 34.7305C188.566 33.4258 188.304 32.457 187.781 31.8242C187.257 31.1914 186.609 30.875 185.835 30.875C185.031 30.875 184.363 31.1875 183.831 31.8125C183.3 32.4297 183.034 33.3477 183.034 34.5664ZM194.448 28.5547H197.519V30.3828C197.917 29.7578 198.456 29.25 199.136 28.8594C199.816 28.4688 200.57 28.2734 201.398 28.2734C202.843 28.2734 204.07 28.8398 205.077 29.9727C206.085 31.1055 206.589 32.6836 206.589 34.707C206.589 36.7852 206.081 38.4023 205.066 39.5586C204.05 40.707 202.82 41.2812 201.374 41.2812C200.687 41.2812 200.062 41.1445 199.499 40.8711C198.945 40.5977 198.359 40.1289 197.741 39.4648V45.7344H194.448V28.5547ZM197.706 34.5664C197.706 35.9648 197.984 37 198.538 37.6719C199.093 38.3359 199.769 38.668 200.566 38.668C201.331 38.668 201.968 38.3633 202.476 37.7539C202.984 37.1367 203.238 36.1289 203.238 34.7305C203.238 33.4258 202.976 32.457 202.452 31.8242C201.929 31.1914 201.281 30.875 200.507 30.875C199.702 30.875 199.034 31.1875 198.503 31.8125C197.972 32.4297 197.706 33.3477 197.706 34.5664ZM209.214 26.8672V23.8203H212.507V26.8672H209.214ZM209.214 41V28.5547H212.507V41H209.214ZM227.214 41H223.921V34.6484C223.921 33.3047 223.851 32.4375 223.71 32.0469C223.57 31.6484 223.339 31.3398 223.019 31.1211C222.706 30.9023 222.327 30.793 221.882 30.793C221.312 30.793 220.8 30.9492 220.347 31.2617C219.894 31.5742 219.581 31.9883 219.409 32.5039C219.245 33.0195 219.163 33.9727 219.163 35.3633V41H215.87V28.5547H218.929V30.3828C220.015 28.9766 221.382 28.2734 223.031 28.2734C223.757 28.2734 224.421 28.4062 225.023 28.6719C225.624 28.9297 226.077 29.2617 226.382 29.668C226.695 30.0742 226.909 30.5352 227.027 31.0508C227.152 31.5664 227.214 32.3047 227.214 33.2656V41ZM230.261 41.8203L234.023 42.2773C234.085 42.7148 234.23 43.0156 234.456 43.1797C234.769 43.4141 235.261 43.5312 235.933 43.5312C236.792 43.5312 237.437 43.4023 237.866 43.1445C238.156 42.9727 238.374 42.6953 238.523 42.3125C238.624 42.0391 238.675 41.5352 238.675 40.8008V38.9844C237.691 40.3281 236.448 41 234.948 41C233.277 41 231.952 40.293 230.976 38.8789C230.21 37.7617 229.827 36.3711 229.827 34.707C229.827 32.6211 230.327 31.0273 231.327 29.9258C232.335 28.8242 233.585 28.2734 235.077 28.2734C236.616 28.2734 237.886 28.9492 238.886 30.3008V28.5547H241.968V39.7227C241.968 41.1914 241.847 42.2891 241.605 43.0156C241.363 43.7422 241.023 44.3125 240.585 44.7266C240.148 45.1406 239.562 45.4648 238.827 45.6992C238.101 45.9336 237.179 46.0508 236.062 46.0508C233.952 46.0508 232.456 45.6875 231.573 44.9609C230.691 44.2422 230.249 43.3281 230.249 42.2188C230.249 42.1094 230.253 41.9766 230.261 41.8203ZM233.202 34.5195C233.202 35.8398 233.456 36.8086 233.964 37.4258C234.48 38.0352 235.113 38.3398 235.863 38.3398C236.667 38.3398 237.347 38.0273 237.902 37.4023C238.456 36.7695 238.734 35.8359 238.734 34.6016C238.734 33.3125 238.468 32.3555 237.937 31.7305C237.406 31.1055 236.734 30.793 235.921 30.793C235.132 30.793 234.48 31.1016 233.964 31.7188C233.456 32.3281 233.202 33.2617 233.202 34.5195Z" fill="black"/>
<path d="M31.0148 54.0078C31.1626 54.5058 31.7281 54.8047 32.2743 54.6699L46.1805 51.2715C46.7268 51.1367 47.0545 50.6211 46.9067 50.123L43.7129 39.2539C43.5651 38.7559 42.9996 38.457 42.4534 38.5918L37.4924 39.8105L39.0861 45.2422L35.1147 46.209L33.521 40.7773L28.5536 41.9902C28.0073 42.125 27.6796 42.6406 27.8274 43.1387L31.0148 54.0078ZM52.4653 32C51.3279 32 50.409 32.8379 50.409 33.875V52.8359L28.168 58.3672C27.8917 58.4375 27.731 58.6953 27.8081 58.9414L28.6178 61.6543C28.6949 61.9062 28.9777 62.0527 29.2476 61.9824L54.5474 55.6894C54.7016 59.1933 57.8376 62 61.719 62C65.6968 62 68.9163 59.0644 68.9163 55.4375V32H52.4653ZM61.719 58.25C60.0161 58.25 58.6344 56.9902 58.6344 55.4375C58.6344 53.8847 60.0161 52.625 61.719 52.625C63.4219 52.625 64.8036 53.8847 64.8036 55.4375C64.8036 56.9902 63.4219 58.25 61.719 58.25Z" fill="black"/>
<path d="M84.5149 62V51.9785H91.2756V53.1611H85.8411V56.2646H90.5442V57.4473H85.8411V62H84.5149ZM92.3899 58.3701C92.3899 57.0257 92.7636 56.0299 93.511 55.3828C94.1353 54.8451 94.8964 54.5762 95.7942 54.5762C96.7922 54.5762 97.608 54.9043 98.2415 55.5605C98.8749 56.2122 99.1917 57.1146 99.1917 58.2676C99.1917 59.2018 99.0504 59.9378 98.7678 60.4756C98.4898 61.0088 98.0819 61.4235 97.5442 61.7197C97.011 62.016 96.4277 62.1641 95.7942 62.1641C94.7779 62.1641 93.9553 61.8382 93.3264 61.1865C92.7021 60.5348 92.3899 59.596 92.3899 58.3701ZM93.6545 58.3701C93.6545 59.2998 93.8573 59.9971 94.2629 60.4619C94.6685 60.9222 95.179 61.1523 95.7942 61.1523C96.4049 61.1523 96.913 60.9199 97.3186 60.4551C97.7242 59.9902 97.927 59.2816 97.927 58.3291C97.927 57.4313 97.7219 56.7523 97.3118 56.292C96.9062 55.8271 96.4003 55.5947 95.7942 55.5947C95.179 55.5947 94.6685 55.8249 94.2629 56.2852C93.8573 56.7454 93.6545 57.4404 93.6545 58.3701ZM100.627 62V54.7402H101.735V55.8408C102.017 55.3258 102.277 54.9863 102.514 54.8223C102.755 54.6582 103.02 54.5762 103.307 54.5762C103.722 54.5762 104.143 54.7083 104.572 54.9727L104.148 56.1143C103.847 55.9365 103.546 55.8477 103.245 55.8477C102.976 55.8477 102.735 55.9297 102.521 56.0938C102.307 56.2533 102.154 56.4766 102.063 56.7637C101.926 57.2012 101.858 57.6797 101.858 58.1992V62H100.627ZM108.741 58.3701C108.741 57.0257 109.115 56.0299 109.863 55.3828C110.487 54.8451 111.248 54.5762 112.146 54.5762C113.144 54.5762 113.96 54.9043 114.593 55.5605C115.226 56.2122 115.543 57.1146 115.543 58.2676C115.543 59.2018 115.402 59.9378 115.119 60.4756C114.841 61.0088 114.434 61.4235 113.896 61.7197C113.363 62.016 112.779 62.1641 112.146 62.1641C111.129 62.1641 110.307 61.8382 109.678 61.1865C109.054 60.5348 108.741 59.596 108.741 58.3701ZM110.006 58.3701C110.006 59.2998 110.209 59.9971 110.615 60.4619C111.02 60.9222 111.531 61.1523 112.146 61.1523C112.756 61.1523 113.265 60.9199 113.67 60.4551C114.076 59.9902 114.279 59.2816 114.279 58.3291C114.279 57.4313 114.073 56.7523 113.663 56.292C113.258 55.8271 112.752 55.5947 112.146 55.5947C111.531 55.5947 111.02 55.8249 110.615 56.2852C110.209 56.7454 110.006 57.4404 110.006 58.3701ZM116.979 62V54.7402H118.086V55.8408C118.369 55.3258 118.628 54.9863 118.865 54.8223C119.107 54.6582 119.371 54.5762 119.658 54.5762C120.073 54.5762 120.495 54.7083 120.923 54.9727L120.499 56.1143C120.198 55.9365 119.898 55.8477 119.597 55.8477C119.328 55.8477 119.087 55.9297 118.872 56.0938C118.658 56.2533 118.505 56.4766 118.414 56.7637C118.278 57.2012 118.209 57.6797 118.209 58.1992V62H116.979ZM126.365 62V61.084C125.904 61.804 125.227 62.1641 124.334 62.1641C123.755 62.1641 123.222 62.0046 122.735 61.6855C122.252 61.3665 121.876 60.9222 121.607 60.3525C121.342 59.7783 121.21 59.1198 121.21 58.377C121.21 57.6523 121.331 56.9961 121.573 56.4082C121.814 55.8158 122.176 55.3623 122.659 55.0479C123.142 54.7334 123.683 54.5762 124.28 54.5762C124.717 54.5762 125.107 54.6696 125.448 54.8564C125.79 55.0387 126.068 55.278 126.282 55.5742V51.9785H127.506V62H126.365ZM122.475 58.377C122.475 59.3066 122.671 60.0016 123.063 60.4619C123.455 60.9222 123.917 61.1523 124.45 61.1523C124.988 61.1523 125.444 60.9336 125.818 60.4961C126.196 60.054 126.385 59.3818 126.385 58.4795C126.385 57.486 126.194 56.7568 125.811 56.292C125.428 55.8271 124.956 55.5947 124.396 55.5947C123.849 55.5947 123.391 55.818 123.022 56.2646C122.657 56.7113 122.475 57.4154 122.475 58.377ZM134.417 59.6621L135.689 59.8193C135.488 60.5622 135.117 61.1387 134.574 61.5488C134.032 61.959 133.339 62.1641 132.496 62.1641C131.434 62.1641 130.591 61.8382 129.967 61.1865C129.347 60.5303 129.037 59.612 129.037 58.4316C129.037 57.2103 129.352 56.2624 129.981 55.5879C130.61 54.9134 131.425 54.5762 132.428 54.5762C133.399 54.5762 134.192 54.9066 134.807 55.5674C135.422 56.2282 135.73 57.1579 135.73 58.3564C135.73 58.4294 135.727 58.5387 135.723 58.6846H130.309C130.354 59.4821 130.58 60.0928 130.986 60.5166C131.391 60.9404 131.897 61.1523 132.503 61.1523C132.954 61.1523 133.339 61.0339 133.658 60.7969C133.977 60.5599 134.23 60.1816 134.417 59.6621ZM130.377 57.6729H134.431C134.376 57.0622 134.221 56.6042 133.966 56.2988C133.574 55.8249 133.066 55.5879 132.442 55.5879C131.877 55.5879 131.4 55.777 131.013 56.1553C130.63 56.5335 130.418 57.0394 130.377 57.6729ZM137.227 62V54.7402H138.334V55.8408C138.617 55.3258 138.877 54.9863 139.114 54.8223C139.355 54.6582 139.619 54.5762 139.906 54.5762C140.321 54.5762 140.743 54.7083 141.171 54.9727L140.747 56.1143C140.447 55.9365 140.146 55.8477 139.845 55.8477C139.576 55.8477 139.335 55.9297 139.12 56.0938C138.906 56.2533 138.753 56.4766 138.662 56.7637C138.526 57.2012 138.457 57.6797 138.457 58.1992V62H137.227ZM141.41 59.833L142.627 59.6416C142.696 60.1292 142.885 60.5029 143.195 60.7627C143.509 61.0225 143.947 61.1523 144.507 61.1523C145.072 61.1523 145.491 61.0384 145.765 60.8105C146.038 60.5781 146.175 60.307 146.175 59.9971C146.175 59.7191 146.054 59.5003 145.813 59.3408C145.644 59.2314 145.225 59.0924 144.555 58.9238C143.653 58.696 143.026 58.5 142.675 58.3359C142.329 58.1673 142.064 57.9372 141.882 57.6455C141.704 57.3493 141.615 57.0234 141.615 56.668C141.615 56.3444 141.688 56.0459 141.834 55.7725C141.985 55.4945 142.187 55.2643 142.443 55.082C142.634 54.9408 142.894 54.8223 143.222 54.7266C143.555 54.6263 143.91 54.5762 144.288 54.5762C144.858 54.5762 145.357 54.6582 145.785 54.8223C146.218 54.9863 146.537 55.2096 146.742 55.4922C146.948 55.7702 147.089 56.1439 147.166 56.6133L145.963 56.7773C145.908 56.4036 145.749 56.112 145.485 55.9023C145.225 55.6927 144.856 55.5879 144.377 55.5879C143.812 55.5879 143.409 55.6813 143.167 55.8682C142.926 56.055 142.805 56.2738 142.805 56.5244C142.805 56.6839 142.855 56.8275 142.955 56.9551C143.056 57.0872 143.213 57.1966 143.427 57.2832C143.55 57.3288 143.912 57.4336 144.514 57.5977C145.384 57.8301 145.99 58.0215 146.332 58.1719C146.679 58.3177 146.95 58.5319 147.146 58.8145C147.342 59.097 147.44 59.4479 147.44 59.8672C147.44 60.2773 147.319 60.6647 147.077 61.0293C146.84 61.3893 146.496 61.6696 146.045 61.8701C145.594 62.0661 145.084 62.1641 144.514 62.1641C143.571 62.1641 142.851 61.9681 142.354 61.5762C141.862 61.1842 141.547 60.6032 141.41 59.833ZM153.093 62V55.6973H152.006V54.7402H153.093V53.9678C153.093 53.4801 153.136 53.1178 153.223 52.8809C153.341 52.5618 153.549 52.3044 153.845 52.1084C154.146 51.9079 154.565 51.8076 155.103 51.8076C155.449 51.8076 155.832 51.8486 156.251 51.9307L156.067 53.0039C155.811 52.9583 155.57 52.9355 155.342 52.9355C154.968 52.9355 154.704 53.0153 154.549 53.1748C154.394 53.3343 154.317 53.6328 154.317 54.0703V54.7402H155.732V55.6973H154.317V62H153.093ZM156.682 62V54.7402H157.789V55.8408C158.072 55.3258 158.332 54.9863 158.569 54.8223C158.81 54.6582 159.074 54.5762 159.362 54.5762C159.776 54.5762 160.198 54.7083 160.626 54.9727L160.202 56.1143C159.902 55.9365 159.601 55.8477 159.3 55.8477C159.031 55.8477 158.79 55.9297 158.575 56.0938C158.361 56.2533 158.209 56.4766 158.117 56.7637C157.981 57.2012 157.912 57.6797 157.912 58.1992V62H156.682ZM160.9 58.3701C160.9 57.0257 161.273 56.0299 162.021 55.3828C162.645 54.8451 163.406 54.5762 164.304 54.5762C165.302 54.5762 166.118 54.9043 166.751 55.5605C167.385 56.2122 167.701 57.1146 167.701 58.2676C167.701 59.2018 167.56 59.9378 167.278 60.4756C167 61.0088 166.592 61.4235 166.054 61.7197C165.521 62.016 164.937 62.1641 164.304 62.1641C163.288 62.1641 162.465 61.8382 161.836 61.1865C161.212 60.5348 160.9 59.596 160.9 58.3701ZM162.164 58.3701C162.164 59.2998 162.367 59.9971 162.773 60.4619C163.178 60.9222 163.689 61.1523 164.304 61.1523C164.915 61.1523 165.423 60.9199 165.828 60.4551C166.234 59.9902 166.437 59.2816 166.437 58.3291C166.437 57.4313 166.232 56.7523 165.822 56.292C165.416 55.8271 164.91 55.5947 164.304 55.5947C163.689 55.5947 163.178 55.8249 162.773 56.2852C162.367 56.7454 162.164 57.4404 162.164 58.3701ZM169.151 62V54.7402H170.251V55.7588C170.479 55.4033 170.782 55.1185 171.16 54.9043C171.539 54.6855 171.969 54.5762 172.452 54.5762C172.99 54.5762 173.43 54.6878 173.772 54.9111C174.118 55.1344 174.362 55.4466 174.503 55.8477C175.077 55 175.825 54.5762 176.745 54.5762C177.465 54.5762 178.019 54.7767 178.406 55.1777C178.794 55.5742 178.988 56.1872 178.988 57.0166V62H177.764V57.4268C177.764 56.9346 177.723 56.5814 177.641 56.3672C177.563 56.1484 177.42 55.973 177.21 55.8408C177.001 55.7087 176.754 55.6426 176.472 55.6426C175.962 55.6426 175.538 55.8135 175.2 56.1553C174.863 56.4925 174.695 57.0348 174.695 57.7822V62H173.464V57.2832C173.464 56.7363 173.364 56.3262 173.163 56.0527C172.963 55.7793 172.635 55.6426 172.179 55.6426C171.833 55.6426 171.511 55.7337 171.215 55.916C170.923 56.0983 170.712 56.3649 170.579 56.7158C170.447 57.0667 170.381 57.5726 170.381 58.2334V62H169.151ZM184.6 54.3848C184.6 53.6693 184.78 53.0609 185.14 52.5596C185.5 52.0583 186.022 51.8076 186.705 51.8076C187.334 51.8076 187.854 52.0332 188.264 52.4844C188.679 52.931 188.886 53.5895 188.886 54.46C188.886 55.3076 188.676 55.9616 188.257 56.4219C187.842 56.8776 187.33 57.1055 186.719 57.1055C186.113 57.1055 185.607 56.8799 185.201 56.4287C184.8 55.9775 184.6 55.2962 184.6 54.3848ZM186.74 52.6553C186.434 52.6553 186.179 52.7874 185.974 53.0518C185.773 53.3161 185.673 53.8014 185.673 54.5078C185.673 55.1504 185.776 55.6038 185.981 55.8682C186.186 56.1279 186.439 56.2578 186.74 56.2578C187.049 56.2578 187.305 56.1257 187.505 55.8613C187.71 55.597 187.813 55.1139 187.813 54.4121C187.813 53.765 187.71 53.3115 187.505 53.0518C187.3 52.7874 187.045 52.6553 186.74 52.6553ZM186.746 62.3691L192.229 51.8076H193.227L187.765 62.3691H186.746ZM191.08 59.6484C191.08 58.9284 191.26 58.32 191.62 57.8232C191.98 57.3219 192.504 57.0713 193.193 57.0713C193.822 57.0713 194.341 57.2969 194.751 57.748C195.166 58.1947 195.373 58.8532 195.373 59.7236C195.373 60.5713 195.164 61.2253 194.744 61.6855C194.33 62.1413 193.815 62.3691 193.199 62.3691C192.593 62.3691 192.087 62.1436 191.682 61.6924C191.281 61.2367 191.08 60.5553 191.08 59.6484ZM193.227 57.9189C192.917 57.9189 192.659 58.0511 192.454 58.3154C192.254 58.5798 192.154 59.0651 192.154 59.7715C192.154 60.4095 192.256 60.8607 192.461 61.125C192.666 61.3893 192.919 61.5215 193.22 61.5215C193.534 61.5215 193.792 61.3893 193.992 61.125C194.198 60.8607 194.3 60.3776 194.3 59.6758C194.3 59.0286 194.198 58.5752 193.992 58.3154C193.787 58.0511 193.532 57.9189 193.227 57.9189ZM196.823 59.375L198.115 59.2656C198.21 59.8945 198.431 60.3685 198.778 60.6875C199.128 61.002 199.55 61.1592 200.042 61.1592C200.635 61.1592 201.136 60.9359 201.546 60.4893C201.956 60.0426 202.161 59.4502 202.161 58.7119C202.161 58.0101 201.963 57.4564 201.567 57.0508C201.175 56.6452 200.66 56.4424 200.022 56.4424C199.625 56.4424 199.267 56.5335 198.948 56.7158C198.629 56.8936 198.379 57.126 198.197 57.4131L197.041 57.2627L198.012 52.1152H202.995V53.291H198.996L198.456 55.9844C199.058 55.5651 199.689 55.3555 200.35 55.3555C201.225 55.3555 201.963 55.6585 202.565 56.2646C203.166 56.8708 203.467 57.6501 203.467 58.6025C203.467 59.5094 203.203 60.2933 202.674 60.9541C202.031 61.7653 201.154 62.1709 200.042 62.1709C199.131 62.1709 198.386 61.9157 197.807 61.4053C197.233 60.8949 196.905 60.2181 196.823 59.375ZM204.615 57.0576C204.615 55.8727 204.736 54.9202 204.978 54.2002C205.224 53.4756 205.586 52.9173 206.065 52.5254C206.548 52.1335 207.154 51.9375 207.883 51.9375C208.421 51.9375 208.892 52.0469 209.298 52.2656C209.704 52.4798 210.039 52.792 210.303 53.2021C210.567 53.6077 210.775 54.1045 210.925 54.6924C211.075 55.2757 211.151 56.0641 211.151 57.0576C211.151 58.2334 211.03 59.1836 210.788 59.9082C210.547 60.6283 210.184 61.1865 209.701 61.583C209.223 61.9749 208.617 62.1709 207.883 62.1709C206.917 62.1709 206.158 61.8245 205.607 61.1318C204.946 60.2979 204.615 58.9398 204.615 57.0576ZM205.88 57.0576C205.88 58.7028 206.072 59.7988 206.454 60.3457C206.842 60.888 207.318 61.1592 207.883 61.1592C208.448 61.1592 208.922 60.8857 209.305 60.3389C209.692 59.792 209.886 58.6982 209.886 57.0576C209.886 55.4079 209.692 54.3118 209.305 53.7695C208.922 53.2272 208.444 52.9561 207.869 52.9561C207.304 52.9561 206.853 53.1953 206.516 53.6738C206.092 54.2845 205.88 55.4124 205.88 57.0576Z" fill="black"/>
</svg>
