<svg width="40" height="43" viewBox="0 0 40 43" fill="none" xmlns="http://www.w3.org/2000/svg">
<g filter="url(#filter0_i_44_1690)">
<path d="M12.0732 33.6668C9.85979 33.6668 8.06893 35.5605 8.06893 37.8751C8.06893 40.1897 9.85979 42.0835 12.0732 42.0835C14.2866 42.0835 16.0976 40.1897 16.0976 37.8751C16.0976 35.5605 14.2866 33.6668 12.0732 33.6668ZM32.1952 33.6668C29.9818 33.6668 28.1909 35.5605 28.1909 37.8751C28.1909 40.1897 29.9818 42.0835 32.1952 42.0835C34.4086 42.0835 36.2196 40.1897 36.2196 37.8751C36.2196 35.5605 34.4086 33.6668 32.1952 33.6668ZM14.2866 23.1459H29.2775C30.7867 23.1459 32.1147 22.2832 32.7989 20.9786L39.3184 8.05898C39.8215 7.04898 39.4794 5.78647 38.5135 5.23939C37.5276 4.67126 36.3001 5.07106 35.7769 6.1021L29.2775 18.9376H15.1519L6.5799 0H2.0122C0.905491 0 0 0.946878 0 2.10417C0 3.26147 0.905491 4.20834 2.0122 4.20834H4.0244L11.2683 20.179L8.55186 25.3132C7.08295 28.1328 9.01466 31.5626 12.0732 31.5626H34.2074C35.3141 31.5626 36.2196 30.6157 36.2196 29.4584C36.2196 28.3011 35.3141 27.3542 34.2074 27.3542H12.0732L14.2866 23.1459Z" fill="#323232"/>
</g>
<defs>
<filter id="filter0_i_44_1690" x="0" y="0" width="39.5493" height="42.0835" filterUnits="userSpaceOnUse" color-interpolation-filters="sRGB">
<feFlood flood-opacity="0" result="BackgroundImageFix"/>
<feBlend mode="normal" in="SourceGraphic" in2="BackgroundImageFix" result="shape"/>
<feColorMatrix in="SourceAlpha" type="matrix" values="0 0 0 0 0 0 0 0 0 0 0 0 0 0 0 0 0 0 127 0" result="hardAlpha"/>
<feOffset dx="0.5" dy="0.5"/>
<feComposite in2="hardAlpha" operator="arithmetic" k2="-1" k3="1"/>
<feColorMatrix type="matrix" values="0 0 0 0 0.12549 0 0 0 0 0.12549 0 0 0 0 0.12549 0 0 0 0.2 0"/>
<feBlend mode="normal" in2="shape" result="effect1_innerShadow_44_1690"/>
</filter>
</defs>
</svg>
