<svg width="280" height="628" viewBox="0 0 280 628" fill="none" xmlns="http://www.w3.org/2000/svg">
<rect width="280" height="628" fill="#3D464D"/>
<path d="M22.791 42.7174H34.3753" stroke="white" stroke-width="2" stroke-linecap="round" stroke-linejoin="round"/>
<path d="M22.791 36.3586H45.9596" stroke="white" stroke-width="2" stroke-linecap="round" stroke-linejoin="round"/>
<path d="M22.791 49.076H45.9596" stroke="white" stroke-width="2" stroke-linecap="round" stroke-linejoin="round"/>
<path d="M82.9844 45.5781L87.4688 47C86.7812 49.5 85.6354 51.3594 84.0312 52.5781C82.4375 53.7865 80.4115 54.3906 77.9531 54.3906C74.9115 54.3906 72.4115 53.3542 70.4531 51.2812C68.4948 49.1979 67.5156 46.3542 67.5156 42.75C67.5156 38.9375 68.5 35.9792 70.4688 33.875C72.4375 31.7604 75.026 30.7031 78.2344 30.7031C81.0365 30.7031 83.3125 31.5312 85.0625 33.1875C86.1042 34.1667 86.8854 35.5729 87.4062 37.4062L82.8281 38.5C82.5573 37.3125 81.9896 36.375 81.125 35.6875C80.2708 35 79.2292 34.6562 78 34.6562C76.3021 34.6562 74.9219 35.2656 73.8594 36.4844C72.8073 37.7031 72.2812 39.6771 72.2812 42.4062C72.2812 45.3021 72.8021 47.3646 73.8438 48.5938C74.8854 49.8229 76.2396 50.4375 77.9062 50.4375C79.1354 50.4375 80.1927 50.0469 81.0781 49.2656C81.9635 48.4844 82.599 47.2552 82.9844 45.5781ZM94.7031 42.4688L90.7188 41.75C91.1667 40.1458 91.9375 38.9583 93.0312 38.1875C94.125 37.4167 95.75 37.0312 97.9062 37.0312C99.8646 37.0312 101.323 37.2656 102.281 37.7344C103.24 38.1927 103.911 38.7812 104.297 39.5C104.693 40.2083 104.891 41.5156 104.891 43.4219L104.844 48.5469C104.844 50.0052 104.911 51.0833 105.047 51.7812C105.193 52.4688 105.458 53.2083 105.844 54H101.5C101.385 53.7083 101.245 53.276 101.078 52.7031C101.005 52.4427 100.953 52.2708 100.922 52.1875C100.172 52.9167 99.3698 53.4635 98.5156 53.8281C97.6615 54.1927 96.75 54.375 95.7812 54.375C94.0729 54.375 92.724 53.9115 91.7344 52.9844C90.7552 52.0573 90.2656 50.8854 90.2656 49.4688C90.2656 48.5312 90.4896 47.6979 90.9375 46.9688C91.3854 46.2292 92.0104 45.6667 92.8125 45.2812C93.625 44.8854 94.7917 44.5417 96.3125 44.25C98.3646 43.8646 99.7865 43.5052 100.578 43.1719V42.7344C100.578 41.8906 100.37 41.2917 99.9531 40.9375C99.5365 40.5729 98.75 40.3906 97.5938 40.3906C96.8125 40.3906 96.2031 40.5469 95.7656 40.8594C95.3281 41.1615 94.974 41.6979 94.7031 42.4688ZM100.578 46.0312C100.016 46.2188 99.125 46.4427 97.9062 46.7031C96.6875 46.9635 95.8906 47.2188 95.5156 47.4688C94.9427 47.875 94.6562 48.3906 94.6562 49.0156C94.6562 49.6302 94.8854 50.1615 95.3438 50.6094C95.8021 51.0573 96.3854 51.2812 97.0938 51.2812C97.8854 51.2812 98.6406 51.0208 99.3594 50.5C99.8906 50.1042 100.24 49.6198 100.406 49.0469C100.521 48.6719 100.578 47.9583 100.578 46.9062V46.0312ZM116.844 37.4062V40.9062H113.844V47.5938C113.844 48.9479 113.87 49.7396 113.922 49.9688C113.984 50.1875 114.115 50.3698 114.312 50.5156C114.521 50.6615 114.771 50.7344 115.062 50.7344C115.469 50.7344 116.057 50.5938 116.828 50.3125L117.203 53.7188C116.182 54.1562 115.026 54.375 113.734 54.375C112.943 54.375 112.229 54.2448 111.594 53.9844C110.958 53.7135 110.49 53.3698 110.188 52.9531C109.896 52.526 109.693 51.9531 109.578 51.2344C109.484 50.724 109.438 49.6927 109.438 48.1406V40.9062H107.422V37.4062H109.438V34.1094L113.844 31.5469V37.4062H116.844ZM129.5 48.7188L133.875 49.4531C133.312 51.0573 132.422 52.2812 131.203 53.125C129.995 53.9583 128.479 54.375 126.656 54.375C123.771 54.375 121.635 53.4323 120.25 51.5469C119.156 50.0365 118.609 48.1302 118.609 45.8281C118.609 43.0781 119.328 40.9271 120.766 39.375C122.203 37.8125 124.021 37.0312 126.219 37.0312C128.688 37.0312 130.635 37.849 132.062 39.4844C133.49 41.1094 134.172 43.6042 134.109 46.9688H123.109C123.141 48.2708 123.495 49.2865 124.172 50.0156C124.849 50.7344 125.693 51.0938 126.703 51.0938C127.391 51.0938 127.969 50.9062 128.438 50.5312C128.906 50.1562 129.26 49.5521 129.5 48.7188ZM129.75 44.2812C129.719 43.0104 129.391 42.0469 128.766 41.3906C128.141 40.724 127.38 40.3906 126.484 40.3906C125.526 40.3906 124.734 40.7396 124.109 41.4375C123.484 42.1354 123.177 43.0833 123.188 44.2812H129.75ZM137.297 55.0938L142.312 55.7031C142.396 56.2865 142.589 56.6875 142.891 56.9062C143.307 57.2188 143.964 57.375 144.859 57.375C146.005 57.375 146.865 57.2031 147.438 56.8594C147.823 56.6302 148.115 56.2604 148.312 55.75C148.448 55.3854 148.516 54.7135 148.516 53.7344V51.3125C147.203 53.1042 145.547 54 143.547 54C141.318 54 139.552 53.0573 138.25 51.1719C137.229 49.6823 136.719 47.8281 136.719 45.6094C136.719 42.8281 137.385 40.7031 138.719 39.2344C140.062 37.7656 141.729 37.0312 143.719 37.0312C145.771 37.0312 147.464 37.9323 148.797 39.7344V37.4062H152.906V52.2969C152.906 54.2552 152.745 55.7188 152.422 56.6875C152.099 57.6562 151.646 58.4167 151.062 58.9688C150.479 59.5208 149.698 59.9531 148.719 60.2656C147.75 60.5781 146.521 60.7344 145.031 60.7344C142.219 60.7344 140.224 60.25 139.047 59.2812C137.87 58.3229 137.281 57.1042 137.281 55.625C137.281 55.4792 137.286 55.3021 137.297 55.0938ZM141.219 45.3594C141.219 47.1198 141.557 48.4115 142.234 49.2344C142.922 50.0469 143.766 50.4531 144.766 50.4531C145.839 50.4531 146.745 50.0365 147.484 49.2031C148.224 48.3594 148.594 47.1146 148.594 45.4688C148.594 43.75 148.24 42.474 147.531 41.6406C146.823 40.8073 145.927 40.3906 144.844 40.3906C143.792 40.3906 142.922 40.8021 142.234 41.625C141.557 42.4375 141.219 43.6823 141.219 45.3594ZM156.25 45.4688C156.25 44.0104 156.609 42.599 157.328 41.2344C158.047 39.8698 159.062 38.8281 160.375 38.1094C161.698 37.3906 163.172 37.0312 164.797 37.0312C167.307 37.0312 169.365 37.849 170.969 39.4844C172.573 41.1094 173.375 43.1667 173.375 45.6562C173.375 48.1667 172.562 50.25 170.938 51.9062C169.323 53.5521 167.286 54.375 164.828 54.375C163.307 54.375 161.854 54.0312 160.469 53.3438C159.094 52.6562 158.047 51.651 157.328 50.3281C156.609 48.9948 156.25 47.375 156.25 45.4688ZM160.75 45.7031C160.75 47.349 161.141 48.6094 161.922 49.4844C162.703 50.3594 163.667 50.7969 164.812 50.7969C165.958 50.7969 166.917 50.3594 167.688 49.4844C168.469 48.6094 168.859 47.3385 168.859 45.6719C168.859 44.0469 168.469 42.7969 167.688 41.9219C166.917 41.0469 165.958 40.6094 164.812 40.6094C163.667 40.6094 162.703 41.0469 161.922 41.9219C161.141 42.7969 160.75 44.0573 160.75 45.7031ZM181.031 54H176.641V37.4062H180.719V39.7656C181.417 38.651 182.042 37.9167 182.594 37.5625C183.156 37.2083 183.792 37.0312 184.5 37.0312C185.5 37.0312 186.464 37.3073 187.391 37.8594L186.031 41.6875C185.292 41.2083 184.604 40.9688 183.969 40.9688C183.354 40.9688 182.833 41.1406 182.406 41.4844C181.979 41.8177 181.641 42.4271 181.391 43.3125C181.151 44.1979 181.031 46.0521 181.031 48.875V54ZM189.297 35.1562V31.0938H193.688V35.1562H189.297ZM189.297 54V37.4062H193.688V54H189.297ZM207.812 48.7188L212.188 49.4531C211.625 51.0573 210.734 52.2812 209.516 53.125C208.307 53.9583 206.792 54.375 204.969 54.375C202.083 54.375 199.948 53.4323 198.562 51.5469C197.469 50.0365 196.922 48.1302 196.922 45.8281C196.922 43.0781 197.641 40.9271 199.078 39.375C200.516 37.8125 202.333 37.0312 204.531 37.0312C207 37.0312 208.948 37.849 210.375 39.4844C211.802 41.1094 212.484 43.6042 212.422 46.9688H201.422C201.453 48.2708 201.807 49.2865 202.484 50.0156C203.161 50.7344 204.005 51.0938 205.016 51.0938C205.703 51.0938 206.281 50.9062 206.75 50.5312C207.219 50.1562 207.573 49.5521 207.812 48.7188ZM208.062 44.2812C208.031 43.0104 207.703 42.0469 207.078 41.3906C206.453 40.724 205.693 40.3906 204.797 40.3906C203.839 40.3906 203.047 40.7396 202.422 41.4375C201.797 42.1354 201.49 43.0833 201.5 44.2812H208.062ZM214.469 49.2656L218.875 48.5938C219.062 49.4479 219.443 50.099 220.016 50.5469C220.589 50.9844 221.391 51.2031 222.422 51.2031C223.557 51.2031 224.411 50.9948 224.984 50.5781C225.37 50.2865 225.562 49.8958 225.562 49.4062C225.562 49.0729 225.458 48.7969 225.25 48.5781C225.031 48.3698 224.542 48.1771 223.781 48C220.24 47.2188 217.995 46.5052 217.047 45.8594C215.734 44.9635 215.078 43.7188 215.078 42.125C215.078 40.6875 215.646 39.4792 216.781 38.5C217.917 37.5208 219.677 37.0312 222.062 37.0312C224.333 37.0312 226.021 37.401 227.125 38.1406C228.229 38.8802 228.99 39.974 229.406 41.4219L225.266 42.1875C225.089 41.5417 224.75 41.0469 224.25 40.7031C223.76 40.3594 223.057 40.1875 222.141 40.1875C220.984 40.1875 220.156 40.349 219.656 40.6719C219.323 40.901 219.156 41.1979 219.156 41.5625C219.156 41.875 219.302 42.1406 219.594 42.3594C219.99 42.651 221.354 43.0625 223.688 43.5938C226.031 44.125 227.667 44.776 228.594 45.5469C229.51 46.3281 229.969 47.4167 229.969 48.8125C229.969 50.3333 229.333 51.6406 228.062 52.7344C226.792 53.8281 224.911 54.375 222.422 54.375C220.161 54.375 218.37 53.9167 217.047 53C215.734 52.0833 214.875 50.8385 214.469 49.2656Z" fill="white"/>
<rect y="91" width="280" height="52" rx="5" fill="#B59628"/>
<path d="M30.6064 121.21L33.6895 122.188C33.2168 123.906 32.429 125.185 31.3262 126.022C30.2305 126.853 28.8376 127.269 27.1475 127.269C25.0563 127.269 23.3376 126.556 21.9912 125.131C20.6449 123.699 19.9717 121.743 19.9717 119.266C19.9717 116.645 20.6484 114.611 22.002 113.164C23.3555 111.71 25.1351 110.983 27.3408 110.983C29.2673 110.983 30.832 111.553 32.0352 112.691C32.7513 113.365 33.2884 114.331 33.6465 115.592L30.499 116.344C30.3128 115.527 29.9225 114.883 29.3281 114.41C28.7409 113.938 28.0247 113.701 27.1797 113.701C26.0124 113.701 25.0635 114.12 24.333 114.958C23.6097 115.796 23.248 117.153 23.248 119.029C23.248 121.02 23.6061 122.438 24.3223 123.283C25.0384 124.128 25.9694 124.551 27.1152 124.551C27.9603 124.551 28.6872 124.282 29.2959 123.745C29.9046 123.208 30.3415 122.363 30.6064 121.21ZM35.709 121.135C35.709 120.132 35.9561 119.162 36.4502 118.224C36.9443 117.285 37.6426 116.569 38.5449 116.075C39.4544 115.581 40.4678 115.334 41.585 115.334C43.3109 115.334 44.7253 115.896 45.8281 117.021C46.931 118.138 47.4824 119.552 47.4824 121.264C47.4824 122.99 46.9238 124.422 45.8066 125.561C44.6966 126.692 43.2965 127.258 41.6064 127.258C40.5609 127.258 39.5618 127.021 38.6094 126.549C37.6641 126.076 36.9443 125.385 36.4502 124.476C35.9561 123.559 35.709 122.445 35.709 121.135ZM38.8027 121.296C38.8027 122.427 39.0713 123.294 39.6084 123.896C40.1455 124.497 40.8079 124.798 41.5957 124.798C42.3835 124.798 43.0423 124.497 43.5723 123.896C44.1094 123.294 44.3779 122.42 44.3779 121.274C44.3779 120.157 44.1094 119.298 43.5723 118.696C43.0423 118.095 42.3835 117.794 41.5957 117.794C40.8079 117.794 40.1455 118.095 39.6084 118.696C39.0713 119.298 38.8027 120.164 38.8027 121.296ZM49.6309 115.592H52.4131V117.149C53.4085 115.939 54.5938 115.334 55.9688 115.334C56.6992 115.334 57.333 115.484 57.8701 115.785C58.4072 116.086 58.8477 116.541 59.1914 117.149C59.6927 116.541 60.2334 116.086 60.8135 115.785C61.3936 115.484 62.013 115.334 62.6719 115.334C63.5098 115.334 64.2188 115.506 64.7988 115.85C65.3789 116.186 65.8122 116.684 66.0986 117.343C66.3063 117.83 66.4102 118.618 66.4102 119.706V127H63.3916V120.479C63.3916 119.348 63.2878 118.618 63.0801 118.288C62.8008 117.858 62.3711 117.644 61.791 117.644C61.3685 117.644 60.971 117.772 60.5986 118.03C60.2262 118.288 59.9577 118.668 59.793 119.169C59.6283 119.663 59.5459 120.447 59.5459 121.521V127H56.5273V120.748C56.5273 119.638 56.4736 118.922 56.3662 118.6C56.2588 118.277 56.0905 118.037 55.8613 117.88C55.6393 117.722 55.335 117.644 54.9482 117.644C54.4827 117.644 54.0638 117.769 53.6914 118.02C53.319 118.27 53.0505 118.632 52.8857 119.104C52.7282 119.577 52.6494 120.361 52.6494 121.457V127H49.6309V115.592ZM69.3428 115.592H72.1572V117.268C72.5225 116.695 73.0166 116.229 73.6396 115.871C74.2627 115.513 74.9538 115.334 75.7129 115.334C77.0378 115.334 78.1621 115.853 79.0859 116.892C80.0098 117.93 80.4717 119.377 80.4717 121.231C80.4717 123.136 80.0062 124.619 79.0752 125.679C78.1442 126.731 77.0163 127.258 75.6914 127.258C75.0612 127.258 74.4883 127.132 73.9727 126.882C73.4642 126.631 72.9271 126.201 72.3613 125.593V131.34H69.3428V115.592ZM72.3291 121.103C72.3291 122.384 72.5833 123.333 73.0918 123.949C73.6003 124.558 74.2197 124.862 74.9502 124.862C75.652 124.862 76.2357 124.583 76.7012 124.024C77.1667 123.459 77.3994 122.535 77.3994 121.253C77.3994 120.057 77.1595 119.169 76.6797 118.589C76.1999 118.009 75.6055 117.719 74.8965 117.719C74.1589 117.719 73.5465 118.005 73.0596 118.578C72.5726 119.144 72.3291 119.985 72.3291 121.103ZM90.3867 127V125.292C89.9714 125.901 89.4235 126.381 88.7432 126.731C88.07 127.082 87.3574 127.258 86.6055 127.258C85.8392 127.258 85.1517 127.09 84.543 126.753C83.9342 126.416 83.4938 125.944 83.2217 125.335C82.9495 124.726 82.8135 123.885 82.8135 122.811V115.592H85.832V120.834C85.832 122.438 85.8857 123.423 85.9932 123.788C86.1077 124.146 86.3118 124.433 86.6055 124.647C86.8991 124.855 87.2715 124.959 87.7227 124.959C88.2383 124.959 88.7002 124.819 89.1084 124.54C89.5166 124.254 89.7959 123.903 89.9463 123.487C90.0967 123.065 90.1719 122.037 90.1719 120.404V115.592H93.1904V127H90.3867ZM101.559 115.592V117.998H99.4961V122.596C99.4961 123.527 99.514 124.071 99.5498 124.229C99.5928 124.379 99.6823 124.504 99.8184 124.604C99.9616 124.705 100.133 124.755 100.334 124.755C100.613 124.755 101.018 124.658 101.548 124.465L101.806 126.807C101.104 127.107 100.309 127.258 99.4209 127.258C98.8766 127.258 98.3861 127.168 97.9492 126.989C97.5124 126.803 97.1901 126.567 96.9824 126.28C96.7819 125.987 96.6423 125.593 96.5635 125.099C96.499 124.748 96.4668 124.039 96.4668 122.972V117.998H95.0811V115.592H96.4668V113.325L99.4961 111.563V115.592H101.559ZM110.26 123.369L113.268 123.874C112.881 124.977 112.269 125.818 111.431 126.398C110.6 126.971 109.558 127.258 108.305 127.258C106.321 127.258 104.853 126.61 103.9 125.313C103.148 124.275 102.772 122.965 102.772 121.382C102.772 119.491 103.267 118.012 104.255 116.945C105.243 115.871 106.493 115.334 108.004 115.334C109.701 115.334 111.04 115.896 112.021 117.021C113.003 118.138 113.472 119.853 113.429 122.166H105.866C105.888 123.061 106.131 123.759 106.597 124.261C107.062 124.755 107.642 125.002 108.337 125.002C108.81 125.002 109.207 124.873 109.529 124.615C109.852 124.357 110.095 123.942 110.26 123.369ZM110.432 120.318C110.41 119.445 110.185 118.782 109.755 118.331C109.325 117.873 108.802 117.644 108.187 117.644C107.528 117.644 106.983 117.883 106.554 118.363C106.124 118.843 105.913 119.495 105.92 120.318H110.432ZM118.789 127H115.771V115.592H118.574V117.214C119.054 116.448 119.484 115.943 119.863 115.699C120.25 115.456 120.687 115.334 121.174 115.334C121.861 115.334 122.524 115.524 123.161 115.903L122.227 118.535C121.718 118.206 121.245 118.041 120.809 118.041C120.386 118.041 120.028 118.159 119.734 118.396C119.441 118.625 119.208 119.044 119.036 119.652C118.871 120.261 118.789 121.536 118.789 123.477V127Z" fill="white"/>
<path d="M263.756 118.062L258.47 126.56C258.105 127.147 257.514 127.147 257.152 126.56L256.274 125.147C255.909 124.56 255.909 123.61 256.274 123.029L260.021 117.006L256.274 110.983C255.909 110.396 255.909 109.446 256.274 108.865L257.149 107.44C257.514 106.853 258.105 106.853 258.466 107.44L263.752 115.938C264.122 116.525 264.122 117.475 263.756 118.062Z" fill="#F1F1F1"/>
<path d="M25.6113 192V176.252H28.791V182.45H35.0215V176.252H38.2012V192H35.0215V185.114H28.791V192H25.6113ZM43.7334 184.072L40.9941 183.578C41.3021 182.475 41.832 181.659 42.584 181.129C43.3359 180.599 44.4531 180.334 45.9355 180.334C47.2819 180.334 48.2845 180.495 48.9434 180.817C49.6022 181.132 50.0641 181.537 50.3291 182.031C50.6012 182.518 50.7373 183.417 50.7373 184.728L50.7051 188.251C50.7051 189.254 50.7516 189.995 50.8447 190.475C50.945 190.947 51.1276 191.456 51.3926 192H48.4062C48.3275 191.799 48.2308 191.502 48.1162 191.108C48.0661 190.929 48.0303 190.811 48.0088 190.754C47.4932 191.255 46.9417 191.631 46.3545 191.882C45.7673 192.132 45.1406 192.258 44.4746 192.258C43.3001 192.258 42.3727 191.939 41.6924 191.302C41.0192 190.664 40.6826 189.859 40.6826 188.885C40.6826 188.24 40.8366 187.667 41.1445 187.166C41.4525 186.658 41.8822 186.271 42.4336 186.006C42.9922 185.734 43.7943 185.497 44.8398 185.297C46.2507 185.032 47.2282 184.785 47.7725 184.556V184.255C47.7725 183.675 47.6292 183.263 47.3428 183.02C47.0563 182.769 46.5156 182.644 45.7207 182.644C45.1836 182.644 44.7646 182.751 44.4639 182.966C44.1631 183.174 43.9196 183.542 43.7334 184.072ZM47.7725 186.521C47.3857 186.65 46.7734 186.804 45.9355 186.983C45.0977 187.162 44.5498 187.338 44.292 187.51C43.8981 187.789 43.7012 188.144 43.7012 188.573C43.7012 188.996 43.8587 189.361 44.1738 189.669C44.4889 189.977 44.89 190.131 45.377 190.131C45.9212 190.131 46.4404 189.952 46.9346 189.594C47.2998 189.322 47.5397 188.989 47.6543 188.595C47.7331 188.337 47.7725 187.846 47.7725 187.123V186.521ZM64.1006 192H61.082V186.178C61.082 184.946 61.0176 184.151 60.8887 183.793C60.7598 183.428 60.5485 183.145 60.2549 182.944C59.9684 182.744 59.6211 182.644 59.2129 182.644C58.6901 182.644 58.221 182.787 57.8057 183.073C57.3903 183.36 57.1038 183.739 56.9463 184.212C56.7959 184.685 56.7207 185.558 56.7207 186.833V192H53.7021V180.592H56.5059V182.268C57.5013 180.979 58.7546 180.334 60.2656 180.334C60.9316 180.334 61.5404 180.456 62.0918 180.699C62.6432 180.936 63.0586 181.24 63.3379 181.612C63.6243 181.985 63.8213 182.407 63.9287 182.88C64.0433 183.353 64.1006 184.029 64.1006 184.91V192ZM77.6357 192H74.832V190.324C74.3665 190.976 73.8151 191.463 73.1777 191.785C72.5475 192.1 71.9102 192.258 71.2656 192.258C69.9551 192.258 68.8307 191.731 67.8926 190.679C66.9616 189.619 66.4961 188.144 66.4961 186.253C66.4961 184.319 66.9508 182.851 67.8604 181.849C68.7699 180.839 69.9193 180.334 71.3086 180.334C72.5833 180.334 73.6862 180.864 74.6172 181.924V176.252H77.6357V192ZM69.5791 186.049C69.5791 187.266 69.7474 188.147 70.084 188.691C70.571 189.479 71.2513 189.873 72.125 189.873C72.8197 189.873 73.4105 189.579 73.8975 188.992C74.3844 188.398 74.6279 187.513 74.6279 186.339C74.6279 185.028 74.3916 184.087 73.9189 183.514C73.4463 182.934 72.8411 182.644 72.1035 182.644C71.3874 182.644 70.7858 182.93 70.2988 183.503C69.819 184.069 69.5791 184.917 69.5791 186.049ZM90.3115 192V178.916H85.6387V176.252H98.1533V178.916H93.4912V192H90.3115ZM97.8633 186.135C97.8633 185.132 98.1104 184.162 98.6045 183.224C99.0986 182.285 99.7969 181.569 100.699 181.075C101.609 180.581 102.622 180.334 103.739 180.334C105.465 180.334 106.88 180.896 107.982 182.021C109.085 183.138 109.637 184.552 109.637 186.264C109.637 187.99 109.078 189.422 107.961 190.561C106.851 191.692 105.451 192.258 103.761 192.258C102.715 192.258 101.716 192.021 100.764 191.549C99.8184 191.076 99.0986 190.385 98.6045 189.476C98.1104 188.559 97.8633 187.445 97.8633 186.135ZM100.957 186.296C100.957 187.427 101.226 188.294 101.763 188.896C102.3 189.497 102.962 189.798 103.75 189.798C104.538 189.798 105.197 189.497 105.727 188.896C106.264 188.294 106.532 187.42 106.532 186.274C106.532 185.157 106.264 184.298 105.727 183.696C105.197 183.095 104.538 182.794 103.75 182.794C102.962 182.794 102.3 183.095 101.763 183.696C101.226 184.298 100.957 185.164 100.957 186.296ZM111.312 186.135C111.312 185.132 111.56 184.162 112.054 183.224C112.548 182.285 113.246 181.569 114.148 181.075C115.058 180.581 116.071 180.334 117.188 180.334C118.914 180.334 120.329 180.896 121.432 182.021C122.535 183.138 123.086 184.552 123.086 186.264C123.086 187.99 122.527 189.422 121.41 190.561C120.3 191.692 118.9 192.258 117.21 192.258C116.164 192.258 115.165 192.021 114.213 191.549C113.268 191.076 112.548 190.385 112.054 189.476C111.56 188.559 111.312 187.445 111.312 186.135ZM114.406 186.296C114.406 187.427 114.675 188.294 115.212 188.896C115.749 189.497 116.411 189.798 117.199 189.798C117.987 189.798 118.646 189.497 119.176 188.896C119.713 188.294 119.981 187.42 119.981 186.274C119.981 185.157 119.713 184.298 119.176 183.696C118.646 183.095 117.987 182.794 117.199 182.794C116.411 182.794 115.749 183.095 115.212 183.696C114.675 184.298 114.406 185.164 114.406 186.296ZM125.46 192V176.252H128.479V192H125.46ZM130.52 188.745L133.549 188.283C133.678 188.87 133.939 189.318 134.333 189.626C134.727 189.927 135.278 190.077 135.987 190.077C136.768 190.077 137.355 189.934 137.749 189.647C138.014 189.447 138.146 189.178 138.146 188.842C138.146 188.613 138.075 188.423 137.932 188.272C137.781 188.129 137.445 187.997 136.922 187.875C134.487 187.338 132.944 186.847 132.292 186.403C131.39 185.787 130.938 184.932 130.938 183.836C130.938 182.848 131.329 182.017 132.109 181.344C132.89 180.671 134.1 180.334 135.74 180.334C137.301 180.334 138.462 180.588 139.221 181.097C139.98 181.605 140.503 182.357 140.789 183.353L137.942 183.879C137.821 183.435 137.588 183.095 137.244 182.858C136.908 182.622 136.424 182.504 135.794 182.504C134.999 182.504 134.43 182.615 134.086 182.837C133.857 182.994 133.742 183.199 133.742 183.449C133.742 183.664 133.842 183.847 134.043 183.997C134.315 184.198 135.253 184.48 136.857 184.846C138.469 185.211 139.593 185.659 140.23 186.188C140.861 186.726 141.176 187.474 141.176 188.434C141.176 189.479 140.739 190.378 139.865 191.13C138.992 191.882 137.699 192.258 135.987 192.258C134.433 192.258 133.201 191.943 132.292 191.312C131.39 190.682 130.799 189.826 130.52 188.745Z" fill="white"/>
<path d="M265.383 184.062L258.681 192.56C258.218 193.147 257.469 193.147 257.01 192.56L255.897 191.147C255.434 190.56 255.434 189.61 255.897 189.029L260.647 183.006L255.897 176.983C255.434 176.396 255.434 175.446 255.897 174.865L257.006 173.44C257.469 172.853 258.218 172.853 258.676 173.44L265.378 181.938C265.846 182.525 265.846 183.475 265.383 184.062Z" fill="#F1F1F1"/>
<path d="M25.5576 242V226.252H30.3164L33.1738 236.994L35.999 226.252H40.7686V242H37.8145V229.604L34.6885 242H31.627L28.5117 229.604V242H25.5576ZM46.1611 234.072L43.4219 233.578C43.7298 232.475 44.2598 231.659 45.0117 231.129C45.7637 230.599 46.8809 230.334 48.3633 230.334C49.7096 230.334 50.7122 230.495 51.3711 230.817C52.0299 231.132 52.4919 231.537 52.7568 232.031C53.029 232.518 53.165 233.417 53.165 234.728L53.1328 238.251C53.1328 239.254 53.1794 239.995 53.2725 240.475C53.3727 240.947 53.5553 241.456 53.8203 242H50.834C50.7552 241.799 50.6585 241.502 50.5439 241.108C50.4938 240.929 50.458 240.811 50.4365 240.754C49.9209 241.255 49.3695 241.631 48.7822 241.882C48.195 242.132 47.5684 242.258 46.9023 242.258C45.7279 242.258 44.8005 241.939 44.1201 241.302C43.4469 240.664 43.1104 239.859 43.1104 238.885C43.1104 238.24 43.2643 237.667 43.5723 237.166C43.8802 236.658 44.3099 236.271 44.8613 236.006C45.4199 235.734 46.222 235.497 47.2676 235.297C48.6784 235.032 49.6559 234.785 50.2002 234.556V234.255C50.2002 233.675 50.057 233.263 49.7705 233.02C49.484 232.769 48.9434 232.644 48.1484 232.644C47.6113 232.644 47.1924 232.751 46.8916 232.966C46.5908 233.174 46.3473 233.542 46.1611 234.072ZM50.2002 236.521C49.8135 236.65 49.2012 236.804 48.3633 236.983C47.5254 237.162 46.9775 237.338 46.7197 237.51C46.3258 237.789 46.1289 238.144 46.1289 238.573C46.1289 238.996 46.2865 239.361 46.6016 239.669C46.9167 239.977 47.3177 240.131 47.8047 240.131C48.349 240.131 48.8682 239.952 49.3623 239.594C49.7275 239.322 49.9674 238.989 50.082 238.595C50.1608 238.337 50.2002 237.846 50.2002 237.123V236.521ZM66.0986 233.965L63.123 234.502C63.0228 233.908 62.7936 233.46 62.4355 233.159C62.0846 232.858 61.6263 232.708 61.0605 232.708C60.3086 232.708 59.707 232.969 59.2559 233.492C58.8118 234.008 58.5898 234.874 58.5898 236.092C58.5898 237.445 58.8154 238.401 59.2666 238.96C59.7249 239.519 60.3372 239.798 61.1035 239.798C61.6764 239.798 62.1455 239.637 62.5107 239.314C62.876 238.985 63.1338 238.423 63.2842 237.628L66.249 238.133C65.9411 239.493 65.3503 240.521 64.4766 241.216C63.6029 241.91 62.432 242.258 60.9639 242.258C59.2952 242.258 57.9632 241.731 56.9678 240.679C55.9795 239.626 55.4854 238.169 55.4854 236.307C55.4854 234.423 55.9831 232.959 56.9785 231.913C57.974 230.86 59.3203 230.334 61.0176 230.334C62.4069 230.334 63.5098 230.635 64.3262 231.236C65.1497 231.831 65.7406 232.74 66.0986 233.965ZM71.4053 226.252V232.042C72.3792 230.903 73.543 230.334 74.8965 230.334C75.5911 230.334 76.2178 230.463 76.7764 230.721C77.335 230.979 77.7539 231.308 78.0332 231.709C78.3197 232.11 78.513 232.554 78.6133 233.041C78.7207 233.528 78.7744 234.284 78.7744 235.308V242H75.7559V235.974C75.7559 234.778 75.6986 234.019 75.584 233.696C75.4694 233.374 75.2653 233.12 74.9717 232.934C74.6852 232.74 74.3236 232.644 73.8867 232.644C73.3854 232.644 72.9378 232.765 72.5439 233.009C72.1501 233.252 71.86 233.621 71.6738 234.115C71.4948 234.602 71.4053 235.326 71.4053 236.285V242H68.3867V226.252H71.4053ZM81.8467 229.045V226.252H84.8652V229.045H81.8467ZM81.8467 242V230.592H84.8652V242H81.8467ZM98.3467 242H95.3281V236.178C95.3281 234.946 95.2637 234.151 95.1348 233.793C95.0059 233.428 94.7946 233.145 94.501 232.944C94.2145 232.744 93.8672 232.644 93.459 232.644C92.9362 232.644 92.4671 232.787 92.0518 233.073C91.6364 233.36 91.3499 233.739 91.1924 234.212C91.042 234.685 90.9668 235.558 90.9668 236.833V242H87.9482V230.592H90.752V232.268C91.7474 230.979 93.0007 230.334 94.5117 230.334C95.1777 230.334 95.7865 230.456 96.3379 230.699C96.8893 230.936 97.3047 231.24 97.584 231.612C97.8704 231.985 98.0674 232.407 98.1748 232.88C98.2894 233.353 98.3467 234.029 98.3467 234.91V242ZM108.025 238.369L111.033 238.874C110.646 239.977 110.034 240.818 109.196 241.398C108.366 241.971 107.324 242.258 106.07 242.258C104.087 242.258 102.618 241.61 101.666 240.313C100.914 239.275 100.538 237.965 100.538 236.382C100.538 234.491 101.032 233.012 102.021 231.945C103.009 230.871 104.258 230.334 105.77 230.334C107.467 230.334 108.806 230.896 109.787 232.021C110.768 233.138 111.237 234.853 111.194 237.166H103.632C103.653 238.061 103.897 238.759 104.362 239.261C104.828 239.755 105.408 240.002 106.103 240.002C106.575 240.002 106.973 239.873 107.295 239.615C107.617 239.357 107.861 238.942 108.025 238.369ZM108.197 235.318C108.176 234.445 107.95 233.782 107.521 233.331C107.091 232.873 106.568 232.644 105.952 232.644C105.293 232.644 104.749 232.883 104.319 233.363C103.89 233.843 103.678 234.495 103.686 235.318H108.197ZM123.354 242V228.916H118.682V226.252H131.196V228.916H126.534V242H123.354ZM130.906 236.135C130.906 235.132 131.153 234.162 131.647 233.224C132.142 232.285 132.84 231.569 133.742 231.075C134.652 230.581 135.665 230.334 136.782 230.334C138.508 230.334 139.923 230.896 141.025 232.021C142.128 233.138 142.68 234.552 142.68 236.264C142.68 237.99 142.121 239.422 141.004 240.561C139.894 241.692 138.494 242.258 136.804 242.258C135.758 242.258 134.759 242.021 133.807 241.549C132.861 241.076 132.142 240.385 131.647 239.476C131.153 238.559 130.906 237.445 130.906 236.135ZM134 236.296C134 237.427 134.269 238.294 134.806 238.896C135.343 239.497 136.005 239.798 136.793 239.798C137.581 239.798 138.24 239.497 138.77 238.896C139.307 238.294 139.575 237.42 139.575 236.274C139.575 235.157 139.307 234.298 138.77 233.696C138.24 233.095 137.581 232.794 136.793 232.794C136.005 232.794 135.343 233.095 134.806 233.696C134.269 234.298 134 235.164 134 236.296ZM144.355 236.135C144.355 235.132 144.603 234.162 145.097 233.224C145.591 232.285 146.289 231.569 147.191 231.075C148.101 230.581 149.114 230.334 150.231 230.334C151.957 230.334 153.372 230.896 154.475 232.021C155.577 233.138 156.129 234.552 156.129 236.264C156.129 237.99 155.57 239.422 154.453 240.561C153.343 241.692 151.943 242.258 150.253 242.258C149.207 242.258 148.208 242.021 147.256 241.549C146.311 241.076 145.591 240.385 145.097 239.476C144.603 238.559 144.355 237.445 144.355 236.135ZM147.449 236.296C147.449 237.427 147.718 238.294 148.255 238.896C148.792 239.497 149.454 239.798 150.242 239.798C151.03 239.798 151.689 239.497 152.219 238.896C152.756 238.294 153.024 237.42 153.024 236.274C153.024 235.157 152.756 234.298 152.219 233.696C151.689 233.095 151.03 232.794 150.242 232.794C149.454 232.794 148.792 233.095 148.255 233.696C147.718 234.298 147.449 235.164 147.449 236.296ZM158.503 242V226.252H161.521V242H158.503ZM163.562 238.745L166.592 238.283C166.721 238.87 166.982 239.318 167.376 239.626C167.77 239.927 168.321 240.077 169.03 240.077C169.811 240.077 170.398 239.934 170.792 239.647C171.057 239.447 171.189 239.178 171.189 238.842C171.189 238.613 171.118 238.423 170.975 238.272C170.824 238.129 170.488 237.997 169.965 237.875C167.53 237.338 165.987 236.847 165.335 236.403C164.433 235.787 163.981 234.932 163.981 233.836C163.981 232.848 164.372 232.017 165.152 231.344C165.933 230.671 167.143 230.334 168.783 230.334C170.344 230.334 171.505 230.588 172.264 231.097C173.023 231.605 173.546 232.357 173.832 233.353L170.985 233.879C170.864 233.435 170.631 233.095 170.287 232.858C169.951 232.622 169.467 232.504 168.837 232.504C168.042 232.504 167.473 232.615 167.129 232.837C166.9 232.994 166.785 233.199 166.785 233.449C166.785 233.664 166.885 233.847 167.086 233.997C167.358 234.198 168.296 234.48 169.9 234.846C171.512 235.211 172.636 235.659 173.273 236.188C173.904 236.726 174.219 237.474 174.219 238.434C174.219 239.479 173.782 240.378 172.908 241.13C172.035 241.882 170.742 242.258 169.03 242.258C167.476 242.258 166.244 241.943 165.335 241.312C164.433 240.682 163.842 239.826 163.562 238.745Z" fill="white"/>
<path d="M265.383 234.062L258.681 242.56C258.218 243.147 257.469 243.147 257.01 242.56L255.897 241.147C255.434 240.56 255.434 239.61 255.897 239.029L260.647 233.006L255.897 226.983C255.434 226.396 255.434 225.446 255.897 224.865L257.006 223.44C257.469 222.853 258.218 222.853 258.676 223.44L265.378 231.938C265.846 232.525 265.846 233.475 265.383 234.062Z" fill="#F1F1F1"/>
<path d="M25.6006 292V276.252H30.7031C32.6367 276.252 33.8971 276.331 34.4844 276.488C35.3867 276.725 36.1423 277.24 36.751 278.035C37.3597 278.823 37.6641 279.843 37.6641 281.097C37.6641 282.063 37.4886 282.876 37.1377 283.535C36.7868 284.194 36.3392 284.713 35.7949 285.093C35.2578 285.465 34.71 285.712 34.1514 285.834C33.3923 285.984 32.293 286.06 30.8535 286.06H28.7803V292H25.6006ZM28.7803 278.916V283.385H30.5205C31.7738 283.385 32.6117 283.302 33.0342 283.138C33.4567 282.973 33.7861 282.715 34.0225 282.364C34.266 282.013 34.3877 281.605 34.3877 281.14C34.3877 280.567 34.2194 280.094 33.8828 279.722C33.5462 279.349 33.1201 279.117 32.6045 279.023C32.2249 278.952 31.4622 278.916 30.3164 278.916H28.7803ZM39.5547 286.135C39.5547 285.132 39.8018 284.162 40.2959 283.224C40.79 282.285 41.4883 281.569 42.3906 281.075C43.3001 280.581 44.3135 280.334 45.4307 280.334C47.1566 280.334 48.571 280.896 49.6738 282.021C50.7767 283.138 51.3281 284.552 51.3281 286.264C51.3281 287.99 50.7695 289.422 49.6523 290.561C48.5423 291.692 47.1423 292.258 45.4521 292.258C44.4066 292.258 43.4076 292.021 42.4551 291.549C41.5098 291.076 40.79 290.385 40.2959 289.476C39.8018 288.559 39.5547 287.445 39.5547 286.135ZM42.6484 286.296C42.6484 287.427 42.917 288.294 43.4541 288.896C43.9912 289.497 44.6536 289.798 45.4414 289.798C46.2292 289.798 46.888 289.497 47.418 288.896C47.9551 288.294 48.2236 287.42 48.2236 286.274C48.2236 285.157 47.9551 284.298 47.418 283.696C46.888 283.095 46.2292 282.794 45.4414 282.794C44.6536 282.794 43.9912 283.095 43.4541 283.696C42.917 284.298 42.6484 285.164 42.6484 286.296ZM55.8291 292L52.2197 280.592H55.1523L57.29 288.068L59.2559 280.592H62.167L64.0684 288.068L66.249 280.592H69.2246L65.5615 292H62.6611L60.6953 284.663L58.7617 292H55.8291ZM77.4316 288.369L80.4395 288.874C80.0527 289.977 79.4404 290.818 78.6025 291.398C77.7718 291.971 76.7298 292.258 75.4766 292.258C73.4928 292.258 72.0247 291.61 71.0723 290.313C70.3203 289.275 69.9443 287.965 69.9443 286.382C69.9443 284.491 70.4385 283.012 71.4268 281.945C72.415 280.871 73.6647 280.334 75.1758 280.334C76.873 280.334 78.2122 280.896 79.1934 282.021C80.1745 283.138 80.6436 284.853 80.6006 287.166H73.0381C73.0596 288.061 73.3031 288.759 73.7686 289.261C74.234 289.755 74.8141 290.002 75.5088 290.002C75.9814 290.002 76.3789 289.873 76.7012 289.615C77.0234 289.357 77.2669 288.942 77.4316 288.369ZM77.6035 285.318C77.582 284.445 77.3564 283.782 76.9268 283.331C76.4971 282.873 75.9743 282.644 75.3584 282.644C74.6995 282.644 74.1553 282.883 73.7256 283.363C73.2959 283.843 73.0846 284.495 73.0918 285.318H77.6035ZM85.9609 292H82.9424V280.592H85.7461V282.214C86.2259 281.448 86.6556 280.943 87.0352 280.699C87.4219 280.456 87.8587 280.334 88.3457 280.334C89.0332 280.334 89.6956 280.524 90.333 280.903L89.3984 283.535C88.89 283.206 88.4173 283.041 87.9805 283.041C87.5579 283.041 87.1999 283.159 86.9062 283.396C86.6126 283.625 86.3799 284.044 86.208 284.652C86.0433 285.261 85.9609 286.536 85.9609 288.477V292ZM101.333 292V278.916H96.6602V276.252H109.175V278.916H104.513V292H101.333ZM108.885 286.135C108.885 285.132 109.132 284.162 109.626 283.224C110.12 282.285 110.818 281.569 111.721 281.075C112.63 280.581 113.644 280.334 114.761 280.334C116.487 280.334 117.901 280.896 119.004 282.021C120.107 283.138 120.658 284.552 120.658 286.264C120.658 287.99 120.1 289.422 118.982 290.561C117.872 291.692 116.472 292.258 114.782 292.258C113.737 292.258 112.738 292.021 111.785 291.549C110.84 291.076 110.12 290.385 109.626 289.476C109.132 288.559 108.885 287.445 108.885 286.135ZM111.979 286.296C111.979 287.427 112.247 288.294 112.784 288.896C113.321 289.497 113.984 289.798 114.771 289.798C115.559 289.798 116.218 289.497 116.748 288.896C117.285 288.294 117.554 287.42 117.554 286.274C117.554 285.157 117.285 284.298 116.748 283.696C116.218 283.095 115.559 282.794 114.771 282.794C113.984 282.794 113.321 283.095 112.784 283.696C112.247 284.298 111.979 285.164 111.979 286.296ZM122.334 286.135C122.334 285.132 122.581 284.162 123.075 283.224C123.569 282.285 124.268 281.569 125.17 281.075C126.079 280.581 127.093 280.334 128.21 280.334C129.936 280.334 131.35 280.896 132.453 282.021C133.556 283.138 134.107 284.552 134.107 286.264C134.107 287.99 133.549 289.422 132.432 290.561C131.322 291.692 129.922 292.258 128.231 292.258C127.186 292.258 126.187 292.021 125.234 291.549C124.289 291.076 123.569 290.385 123.075 289.476C122.581 288.559 122.334 287.445 122.334 286.135ZM125.428 286.296C125.428 287.427 125.696 288.294 126.233 288.896C126.771 289.497 127.433 289.798 128.221 289.798C129.008 289.798 129.667 289.497 130.197 288.896C130.734 288.294 131.003 287.42 131.003 286.274C131.003 285.157 130.734 284.298 130.197 283.696C129.667 283.095 129.008 282.794 128.221 282.794C127.433 282.794 126.771 283.095 126.233 283.696C125.696 284.298 125.428 285.164 125.428 286.296ZM136.481 292V276.252H139.5V292H136.481ZM141.541 288.745L144.57 288.283C144.699 288.87 144.961 289.318 145.354 289.626C145.748 289.927 146.3 290.077 147.009 290.077C147.789 290.077 148.377 289.934 148.771 289.647C149.035 289.447 149.168 289.178 149.168 288.842C149.168 288.613 149.096 288.423 148.953 288.272C148.803 288.129 148.466 287.997 147.943 287.875C145.508 287.338 143.965 286.847 143.313 286.403C142.411 285.787 141.96 284.932 141.96 283.836C141.96 282.848 142.35 282.017 143.131 281.344C143.911 280.671 145.122 280.334 146.762 280.334C148.323 280.334 149.483 280.588 150.242 281.097C151.001 281.605 151.524 282.357 151.811 283.353L148.964 283.879C148.842 283.435 148.609 283.095 148.266 282.858C147.929 282.622 147.446 282.504 146.815 282.504C146.021 282.504 145.451 282.615 145.107 282.837C144.878 282.994 144.764 283.199 144.764 283.449C144.764 283.664 144.864 283.847 145.064 283.997C145.337 284.198 146.275 284.48 147.879 284.846C149.49 285.211 150.615 285.659 151.252 286.188C151.882 286.726 152.197 287.474 152.197 288.434C152.197 289.479 151.76 290.378 150.887 291.13C150.013 291.882 148.72 292.258 147.009 292.258C145.455 292.258 144.223 291.943 143.313 291.312C142.411 290.682 141.82 289.826 141.541 288.745Z" fill="white"/>
<path d="M265.383 284.062L258.681 292.56C258.218 293.147 257.469 293.147 257.01 292.56L255.897 291.147C255.434 290.56 255.434 289.61 255.897 289.029L260.647 283.006L255.897 276.983C255.434 276.396 255.434 275.446 255.897 274.865L257.006 273.44C257.469 272.853 258.218 272.853 258.676 273.44L265.378 281.938C265.846 282.525 265.846 283.475 265.383 284.062Z" fill="#F1F1F1"/>
<path d="M24.7949 336.876L27.8887 336.575C28.0749 337.614 28.4508 338.376 29.0166 338.863C29.5895 339.35 30.3594 339.594 31.3262 339.594C32.3503 339.594 33.1201 339.379 33.6357 338.949C34.1585 338.512 34.4199 338.004 34.4199 337.424C34.4199 337.051 34.3089 336.736 34.0869 336.479C33.8721 336.214 33.4925 335.984 32.9482 335.791C32.5758 335.662 31.7272 335.433 30.4023 335.104C28.6979 334.681 27.502 334.162 26.8145 333.546C25.8477 332.679 25.3643 331.623 25.3643 330.377C25.3643 329.575 25.5898 328.826 26.041 328.132C26.4993 327.43 27.1546 326.896 28.0068 326.531C28.8662 326.166 29.901 325.983 31.1113 325.983C33.0879 325.983 34.5739 326.417 35.5693 327.283C36.5719 328.15 37.0983 329.306 37.1484 330.753L33.9688 330.893C33.8327 330.083 33.5391 329.503 33.0879 329.152C32.6439 328.794 31.9743 328.615 31.0791 328.615C30.1553 328.615 29.432 328.805 28.9092 329.185C28.5726 329.428 28.4043 329.754 28.4043 330.162C28.4043 330.535 28.5618 330.853 28.877 331.118C29.278 331.455 30.252 331.806 31.7988 332.171C33.3457 332.536 34.488 332.916 35.2256 333.31C35.9704 333.696 36.5505 334.23 36.9658 334.91C37.3883 335.583 37.5996 336.418 37.5996 337.413C37.5996 338.315 37.349 339.16 36.8477 339.948C36.3464 340.736 35.6374 341.323 34.7207 341.71C33.804 342.09 32.6618 342.279 31.2939 342.279C29.3031 342.279 27.7741 341.821 26.707 340.904C25.64 339.98 25.0026 338.638 24.7949 336.876ZM45.4844 330.592V332.998H43.4219V337.596C43.4219 338.527 43.4398 339.071 43.4756 339.229C43.5186 339.379 43.6081 339.504 43.7441 339.604C43.8874 339.705 44.0592 339.755 44.2598 339.755C44.5391 339.755 44.9437 339.658 45.4736 339.465L45.7314 341.807C45.0296 342.107 44.2347 342.258 43.3467 342.258C42.8024 342.258 42.3118 342.168 41.875 341.989C41.4382 341.803 41.1159 341.567 40.9082 341.28C40.7077 340.987 40.568 340.593 40.4893 340.099C40.4248 339.748 40.3926 339.039 40.3926 337.972V332.998H39.0068V330.592H40.3926V328.325L43.4219 326.563V330.592H45.4844ZM46.8809 336.135C46.8809 335.132 47.1279 334.162 47.6221 333.224C48.1162 332.285 48.8145 331.569 49.7168 331.075C50.6263 330.581 51.6396 330.334 52.7568 330.334C54.4827 330.334 55.8971 330.896 57 332.021C58.1029 333.138 58.6543 334.552 58.6543 336.264C58.6543 337.99 58.0957 339.422 56.9785 340.561C55.8685 341.692 54.4684 342.258 52.7783 342.258C51.7327 342.258 50.7337 342.021 49.7812 341.549C48.8359 341.076 48.1162 340.385 47.6221 339.476C47.1279 338.559 46.8809 337.445 46.8809 336.135ZM49.9746 336.296C49.9746 337.427 50.2432 338.294 50.7803 338.896C51.3174 339.497 51.9798 339.798 52.7676 339.798C53.5553 339.798 54.2142 339.497 54.7441 338.896C55.2812 338.294 55.5498 337.42 55.5498 336.274C55.5498 335.157 55.2812 334.298 54.7441 333.696C54.2142 333.095 53.5553 332.794 52.7676 332.794C51.9798 332.794 51.3174 333.095 50.7803 333.696C50.2432 334.298 49.9746 335.164 49.9746 336.296ZM63.918 342H60.8994V330.592H63.7031V332.214C64.1829 331.448 64.6126 330.943 64.9922 330.699C65.3789 330.456 65.8158 330.334 66.3027 330.334C66.9902 330.334 67.6527 330.524 68.29 330.903L67.3555 333.535C66.847 333.206 66.3743 333.041 65.9375 333.041C65.515 333.041 65.1569 333.159 64.8633 333.396C64.5697 333.625 64.3369 334.044 64.165 334.652C64.0003 335.261 63.918 336.536 63.918 338.477V342ZM71.8564 334.072L69.1172 333.578C69.4251 332.475 69.9551 331.659 70.707 331.129C71.459 330.599 72.5762 330.334 74.0586 330.334C75.4049 330.334 76.4076 330.495 77.0664 330.817C77.7253 331.132 78.1872 331.537 78.4521 332.031C78.7243 332.518 78.8604 333.417 78.8604 334.728L78.8281 338.251C78.8281 339.254 78.8747 339.995 78.9678 340.475C79.068 340.947 79.2507 341.456 79.5156 342H76.5293C76.4505 341.799 76.3538 341.502 76.2393 341.108C76.1891 340.929 76.1533 340.811 76.1318 340.754C75.6162 341.255 75.0648 341.631 74.4775 341.882C73.8903 342.132 73.2637 342.258 72.5977 342.258C71.4232 342.258 70.4958 341.939 69.8154 341.302C69.1423 340.664 68.8057 339.859 68.8057 338.885C68.8057 338.24 68.9596 337.667 69.2676 337.166C69.5755 336.658 70.0052 336.271 70.5566 336.006C71.1152 335.734 71.9173 335.497 72.9629 335.297C74.3737 335.032 75.3512 334.785 75.8955 334.556V334.255C75.8955 333.675 75.7523 333.263 75.4658 333.02C75.1794 332.769 74.6387 332.644 73.8438 332.644C73.3066 332.644 72.8877 332.751 72.5869 332.966C72.2861 333.174 72.0426 333.542 71.8564 334.072ZM75.8955 336.521C75.5088 336.65 74.8965 336.804 74.0586 336.983C73.2207 337.162 72.6729 337.338 72.415 337.51C72.0212 337.789 71.8242 338.144 71.8242 338.573C71.8242 338.996 71.9818 339.361 72.2969 339.669C72.612 339.977 73.013 340.131 73.5 340.131C74.0443 340.131 74.5635 339.952 75.0576 339.594C75.4229 339.322 75.6628 338.989 75.7773 338.595C75.8561 338.337 75.8955 337.846 75.8955 337.123V336.521ZM81.5674 342.752L85.0156 343.171C85.0729 343.572 85.2054 343.848 85.4131 343.998C85.6995 344.213 86.1507 344.32 86.7666 344.32C87.5544 344.32 88.1452 344.202 88.5391 343.966C88.804 343.808 89.0046 343.554 89.1406 343.203C89.2337 342.952 89.2803 342.491 89.2803 341.817V340.152C88.3779 341.384 87.2393 342 85.8643 342C84.3317 342 83.1178 341.352 82.2227 340.056C81.5208 339.032 81.1699 337.757 81.1699 336.231C81.1699 334.319 81.6283 332.858 82.5449 331.849C83.4688 330.839 84.6146 330.334 85.9824 330.334C87.3932 330.334 88.557 330.953 89.4736 332.192V330.592H92.2988V340.829C92.2988 342.175 92.1878 343.182 91.9658 343.848C91.7438 344.514 91.4323 345.036 91.0312 345.416C90.6302 345.796 90.0931 346.093 89.4199 346.308C88.7539 346.522 87.9089 346.63 86.8848 346.63C84.9512 346.63 83.5798 346.297 82.7705 345.631C81.9613 344.972 81.5566 344.134 81.5566 343.117C81.5566 343.017 81.5602 342.895 81.5674 342.752ZM84.2637 336.06C84.2637 337.27 84.4964 338.158 84.9619 338.724C85.4346 339.282 86.0146 339.562 86.7021 339.562C87.4398 339.562 88.0628 339.275 88.5713 338.702C89.0798 338.122 89.334 337.266 89.334 336.135C89.334 334.953 89.0905 334.076 88.6035 333.503C88.1165 332.93 87.5007 332.644 86.7559 332.644C86.0326 332.644 85.4346 332.926 84.9619 333.492C84.4964 334.051 84.2637 334.907 84.2637 336.06ZM101.902 338.369L104.91 338.874C104.523 339.977 103.911 340.818 103.073 341.398C102.243 341.971 101.201 342.258 99.9473 342.258C97.9635 342.258 96.4954 341.61 95.543 340.313C94.791 339.275 94.415 337.965 94.415 336.382C94.415 334.491 94.9092 333.012 95.8975 331.945C96.8857 330.871 98.1354 330.334 99.6465 330.334C101.344 330.334 102.683 330.896 103.664 332.021C104.645 333.138 105.114 334.853 105.071 337.166H97.5088C97.5303 338.061 97.7738 338.759 98.2393 339.261C98.7048 339.755 99.2848 340.002 99.9795 340.002C100.452 340.002 100.85 339.873 101.172 339.615C101.494 339.357 101.738 338.942 101.902 338.369ZM102.074 335.318C102.053 334.445 101.827 333.782 101.397 333.331C100.968 332.873 100.445 332.644 99.8291 332.644C99.1702 332.644 98.626 332.883 98.1963 333.363C97.7666 333.843 97.5553 334.495 97.5625 335.318H102.074ZM117.231 342V328.916H112.559V326.252H125.073V328.916H120.411V342H117.231ZM124.783 336.135C124.783 335.132 125.03 334.162 125.524 333.224C126.019 332.285 126.717 331.569 127.619 331.075C128.529 330.581 129.542 330.334 130.659 330.334C132.385 330.334 133.799 330.896 134.902 332.021C136.005 333.138 136.557 334.552 136.557 336.264C136.557 337.99 135.998 339.422 134.881 340.561C133.771 341.692 132.371 342.258 130.681 342.258C129.635 342.258 128.636 342.021 127.684 341.549C126.738 341.076 126.019 340.385 125.524 339.476C125.03 338.559 124.783 337.445 124.783 336.135ZM127.877 336.296C127.877 337.427 128.146 338.294 128.683 338.896C129.22 339.497 129.882 339.798 130.67 339.798C131.458 339.798 132.117 339.497 132.646 338.896C133.184 338.294 133.452 337.42 133.452 336.274C133.452 335.157 133.184 334.298 132.646 333.696C132.117 333.095 131.458 332.794 130.67 332.794C129.882 332.794 129.22 333.095 128.683 333.696C128.146 334.298 127.877 335.164 127.877 336.296ZM138.232 336.135C138.232 335.132 138.479 334.162 138.974 333.224C139.468 332.285 140.166 331.569 141.068 331.075C141.978 330.581 142.991 330.334 144.108 330.334C145.834 330.334 147.249 330.896 148.352 332.021C149.454 333.138 150.006 334.552 150.006 336.264C150.006 337.99 149.447 339.422 148.33 340.561C147.22 341.692 145.82 342.258 144.13 342.258C143.084 342.258 142.085 342.021 141.133 341.549C140.188 341.076 139.468 340.385 138.974 339.476C138.479 338.559 138.232 337.445 138.232 336.135ZM141.326 336.296C141.326 337.427 141.595 338.294 142.132 338.896C142.669 339.497 143.331 339.798 144.119 339.798C144.907 339.798 145.566 339.497 146.096 338.896C146.633 338.294 146.901 337.42 146.901 336.274C146.901 335.157 146.633 334.298 146.096 333.696C145.566 333.095 144.907 332.794 144.119 332.794C143.331 332.794 142.669 333.095 142.132 333.696C141.595 334.298 141.326 335.164 141.326 336.296ZM152.38 342V326.252H155.398V342H152.38ZM157.439 338.745L160.469 338.283C160.598 338.87 160.859 339.318 161.253 339.626C161.647 339.927 162.198 340.077 162.907 340.077C163.688 340.077 164.275 339.934 164.669 339.647C164.934 339.447 165.066 339.178 165.066 338.842C165.066 338.613 164.995 338.423 164.852 338.272C164.701 338.129 164.365 337.997 163.842 337.875C161.407 337.338 159.864 336.847 159.212 336.403C158.31 335.787 157.858 334.932 157.858 333.836C157.858 332.848 158.249 332.017 159.029 331.344C159.81 330.671 161.02 330.334 162.66 330.334C164.221 330.334 165.382 330.588 166.141 331.097C166.9 331.605 167.423 332.357 167.709 333.353L164.862 333.879C164.741 333.435 164.508 333.095 164.164 332.858C163.827 332.622 163.344 332.504 162.714 332.504C161.919 332.504 161.35 332.615 161.006 332.837C160.777 332.994 160.662 333.199 160.662 333.449C160.662 333.664 160.762 333.847 160.963 333.997C161.235 334.198 162.173 334.48 163.777 334.846C165.389 335.211 166.513 335.659 167.15 336.188C167.781 336.726 168.096 337.474 168.096 338.434C168.096 339.479 167.659 340.378 166.785 341.13C165.911 341.882 164.619 342.258 162.907 342.258C161.353 342.258 160.121 341.943 159.212 341.312C158.31 340.682 157.719 339.826 157.439 338.745Z" fill="white"/>
<path d="M265.383 334.062L258.681 342.56C258.218 343.147 257.469 343.147 257.01 342.56L255.897 341.147C255.434 340.56 255.434 339.61 255.897 339.029L260.647 333.006L255.897 326.983C255.434 326.396 255.434 325.446 255.897 324.865L257.006 323.44C257.469 322.853 258.218 322.853 258.676 323.44L265.378 331.938C265.846 332.525 265.846 333.475 265.383 334.062Z" fill="#F1F1F1"/>
<path d="M35.6768 386.21L38.7598 387.188C38.2871 388.906 37.4993 390.185 36.3965 391.022C35.3008 391.853 33.9079 392.269 32.2178 392.269C30.1266 392.269 28.4079 391.556 27.0615 390.131C25.7152 388.699 25.042 386.743 25.042 384.266C25.042 381.645 25.7188 379.611 27.0723 378.164C28.4258 376.71 30.2054 375.983 32.4111 375.983C34.3376 375.983 35.9023 376.553 37.1055 377.691C37.8216 378.365 38.3587 379.331 38.7168 380.592L35.5693 381.344C35.3831 380.527 34.9928 379.883 34.3984 379.41C33.8112 378.938 33.0951 378.701 32.25 378.701C31.0827 378.701 30.1338 379.12 29.4033 379.958C28.68 380.796 28.3184 382.153 28.3184 384.029C28.3184 386.02 28.6764 387.438 29.3926 388.283C30.1087 389.128 31.0397 389.551 32.1855 389.551C33.0306 389.551 33.7575 389.282 34.3662 388.745C34.9749 388.208 35.4118 387.363 35.6768 386.21ZM41.4775 392V376.252H44.4961V392H41.4775ZM46.9023 386.135C46.9023 385.132 47.1494 384.162 47.6436 383.224C48.1377 382.285 48.8359 381.569 49.7383 381.075C50.6478 380.581 51.6611 380.334 52.7783 380.334C54.5042 380.334 55.9186 380.896 57.0215 382.021C58.1243 383.138 58.6758 384.552 58.6758 386.264C58.6758 387.99 58.1172 389.422 57 390.561C55.89 391.692 54.4899 392.258 52.7998 392.258C51.7542 392.258 50.7552 392.021 49.8027 391.549C48.8574 391.076 48.1377 390.385 47.6436 389.476C47.1494 388.559 46.9023 387.445 46.9023 386.135ZM49.9961 386.296C49.9961 387.427 50.2646 388.294 50.8018 388.896C51.3389 389.497 52.0013 389.798 52.7891 389.798C53.5768 389.798 54.2357 389.497 54.7656 388.896C55.3027 388.294 55.5713 387.42 55.5713 386.274C55.5713 385.157 55.3027 384.298 54.7656 383.696C54.2357 383.095 53.5768 382.794 52.7891 382.794C52.0013 382.794 51.3389 383.095 50.8018 383.696C50.2646 384.298 49.9961 385.164 49.9961 386.296ZM66.2812 380.592V382.998H64.2188V387.596C64.2188 388.527 64.2367 389.071 64.2725 389.229C64.3154 389.379 64.4049 389.504 64.541 389.604C64.6842 389.705 64.8561 389.755 65.0566 389.755C65.3359 389.755 65.7406 389.658 66.2705 389.465L66.5283 391.807C65.8265 392.107 65.0316 392.258 64.1436 392.258C63.5993 392.258 63.1087 392.168 62.6719 391.989C62.235 391.803 61.9128 391.567 61.7051 391.28C61.5046 390.987 61.3649 390.593 61.2861 390.099C61.2217 389.748 61.1895 389.039 61.1895 387.972V382.998H59.8037V380.592H61.1895V378.325L64.2188 376.563V380.592H66.2812ZM71.3838 376.252V382.042C72.3577 380.903 73.5215 380.334 74.875 380.334C75.5697 380.334 76.1963 380.463 76.7549 380.721C77.3135 380.979 77.7324 381.308 78.0117 381.709C78.2982 382.11 78.4915 382.554 78.5918 383.041C78.6992 383.528 78.7529 384.284 78.7529 385.308V392H75.7344V385.974C75.7344 384.778 75.6771 384.019 75.5625 383.696C75.4479 383.374 75.2438 383.12 74.9502 382.934C74.6637 382.74 74.3021 382.644 73.8652 382.644C73.3639 382.644 72.9163 382.765 72.5225 383.009C72.1286 383.252 71.8385 383.621 71.6523 384.115C71.4733 384.602 71.3838 385.326 71.3838 386.285V392H68.3652V376.252H71.3838ZM88.4316 388.369L91.4395 388.874C91.0527 389.977 90.4404 390.818 89.6025 391.398C88.7718 391.971 87.7298 392.258 86.4766 392.258C84.4928 392.258 83.0247 391.61 82.0723 390.313C81.3203 389.275 80.9443 387.965 80.9443 386.382C80.9443 384.491 81.4385 383.012 82.4268 381.945C83.415 380.871 84.6647 380.334 86.1758 380.334C87.873 380.334 89.2122 380.896 90.1934 382.021C91.1745 383.138 91.6436 384.853 91.6006 387.166H84.0381C84.0596 388.061 84.3031 388.759 84.7686 389.261C85.234 389.755 85.8141 390.002 86.5088 390.002C86.9814 390.002 87.3789 389.873 87.7012 389.615C88.0234 389.357 88.2669 388.942 88.4316 388.369ZM88.6035 385.318C88.582 384.445 88.3564 383.782 87.9268 383.331C87.4971 382.873 86.9743 382.644 86.3584 382.644C85.6995 382.644 85.1553 382.883 84.7256 383.363C84.2959 383.843 84.0846 384.495 84.0918 385.318H88.6035ZM93.0078 388.745L96.0371 388.283C96.166 388.87 96.4274 389.318 96.8213 389.626C97.2152 389.927 97.7666 390.077 98.4756 390.077C99.2562 390.077 99.8434 389.934 100.237 389.647C100.502 389.447 100.635 389.178 100.635 388.842C100.635 388.613 100.563 388.423 100.42 388.272C100.27 388.129 99.9329 387.997 99.4102 387.875C96.9753 387.338 95.432 386.847 94.7803 386.403C93.8779 385.787 93.4268 384.932 93.4268 383.836C93.4268 382.848 93.8171 382.017 94.5977 381.344C95.3783 380.671 96.5885 380.334 98.2285 380.334C99.7897 380.334 100.95 380.588 101.709 381.097C102.468 381.605 102.991 382.357 103.277 383.353L100.431 383.879C100.309 383.435 100.076 383.095 99.7324 382.858C99.3958 382.622 98.9124 382.504 98.2822 382.504C97.4873 382.504 96.918 382.615 96.5742 382.837C96.3451 382.994 96.2305 383.199 96.2305 383.449C96.2305 383.664 96.3307 383.847 96.5312 383.997C96.8034 384.198 97.7415 384.48 99.3457 384.846C100.957 385.211 102.081 385.659 102.719 386.188C103.349 386.726 103.664 387.474 103.664 388.434C103.664 389.479 103.227 390.378 102.354 391.13C101.48 391.882 100.187 392.258 98.4756 392.258C96.9215 392.258 95.6898 391.943 94.7803 391.312C93.8779 390.682 93.2871 389.826 93.0078 388.745ZM126.395 390.077L124.568 392.408C123.673 391.971 122.814 391.37 121.99 390.604C121.353 391.176 120.676 391.599 119.96 391.871C119.244 392.143 118.392 392.279 117.403 392.279C115.441 392.279 113.966 391.728 112.978 390.625C112.211 389.773 111.828 388.792 111.828 387.682C111.828 386.672 112.129 385.766 112.73 384.964C113.332 384.155 114.231 383.453 115.427 382.858C114.89 382.221 114.485 381.616 114.213 381.043C113.941 380.463 113.805 379.915 113.805 379.399C113.805 378.447 114.184 377.641 114.943 376.982C115.71 376.316 116.798 375.983 118.209 375.983C119.57 375.983 120.633 376.331 121.399 377.025C122.166 377.72 122.549 378.569 122.549 379.571C122.549 380.209 122.359 380.814 121.979 381.387C121.6 381.96 120.834 382.608 119.681 383.331L121.872 386.221C122.13 385.762 122.352 385.164 122.538 384.427L125.267 385.05C124.994 386.017 124.758 386.726 124.558 387.177C124.357 387.621 124.142 387.993 123.913 388.294C124.25 388.609 124.683 388.956 125.213 389.336C125.75 389.708 126.144 389.955 126.395 390.077ZM118.177 381.516L118.993 380.893C119.595 380.427 119.896 379.965 119.896 379.507C119.896 379.12 119.749 378.791 119.455 378.519C119.169 378.246 118.778 378.11 118.284 378.11C117.804 378.11 117.428 378.232 117.156 378.476C116.884 378.712 116.748 378.988 116.748 379.303C116.748 379.675 116.977 380.126 117.436 380.656L118.177 381.516ZM116.995 384.792C116.3 385.143 115.781 385.565 115.438 386.06C115.094 386.554 114.922 387.059 114.922 387.574C114.922 388.226 115.133 388.759 115.556 389.175C115.985 389.583 116.558 389.787 117.274 389.787C117.747 389.787 118.202 389.694 118.639 389.508C119.076 389.322 119.552 389.014 120.067 388.584L116.995 384.792ZM134.483 392V376.252H139.586C141.52 376.252 142.78 376.331 143.367 376.488C144.27 376.725 145.025 377.24 145.634 378.035C146.243 378.823 146.547 379.843 146.547 381.097C146.547 382.063 146.371 382.876 146.021 383.535C145.67 384.194 145.222 384.713 144.678 385.093C144.141 385.465 143.593 385.712 143.034 385.834C142.275 385.984 141.176 386.06 139.736 386.06H137.663V392H134.483ZM137.663 378.916V383.385H139.403C140.657 383.385 141.494 383.302 141.917 383.138C142.34 382.973 142.669 382.715 142.905 382.364C143.149 382.013 143.271 381.605 143.271 381.14C143.271 380.567 143.102 380.094 142.766 379.722C142.429 379.349 142.003 379.117 141.487 379.023C141.108 378.952 140.345 378.916 139.199 378.916H137.663ZM149.157 392V376.252H154.26C156.193 376.252 157.454 376.331 158.041 376.488C158.943 376.725 159.699 377.24 160.308 378.035C160.916 378.823 161.221 379.843 161.221 381.097C161.221 382.063 161.045 382.876 160.694 383.535C160.343 384.194 159.896 384.713 159.352 385.093C158.814 385.465 158.267 385.712 157.708 385.834C156.949 385.984 155.85 386.06 154.41 386.06H152.337V392H149.157ZM152.337 378.916V383.385H154.077C155.33 383.385 156.168 383.302 156.591 383.138C157.013 382.973 157.343 382.715 157.579 382.364C157.823 382.013 157.944 381.605 157.944 381.14C157.944 380.567 157.776 380.094 157.439 379.722C157.103 379.349 156.677 379.117 156.161 379.023C155.782 378.952 155.019 378.916 153.873 378.916H152.337ZM163.831 392V376.252H175.508V378.916H167.011V382.407H174.917V385.061H167.011V389.347H175.809V392H163.831Z" fill="white"/>
<path d="M265.383 384.062L258.681 392.56C258.218 393.147 257.469 393.147 257.01 392.56L255.897 391.147C255.434 390.56 255.434 389.61 255.897 389.029L260.647 383.006L255.897 376.983C255.434 376.396 255.434 375.446 255.897 374.865L257.006 373.44C257.469 372.853 258.218 372.853 258.676 373.44L265.378 381.938C265.846 382.525 265.846 383.475 265.383 384.062Z" fill="#F1F1F1"/>
<path d="M25.6006 442V426.252H37.2773V428.916H28.7803V432.407H36.6865V435.061H28.7803V439.347H37.5781V442H25.6006ZM40.2529 442V426.252H43.2715V442H40.2529ZM52.9824 438.369L55.9902 438.874C55.6035 439.977 54.9912 440.818 54.1533 441.398C53.3226 441.971 52.2806 442.258 51.0273 442.258C49.0436 442.258 47.5755 441.61 46.623 440.313C45.8711 439.275 45.4951 437.965 45.4951 436.382C45.4951 434.491 45.9893 433.012 46.9775 431.945C47.9658 430.871 49.2155 430.334 50.7266 430.334C52.4238 430.334 53.763 430.896 54.7441 432.021C55.7253 433.138 56.1943 434.853 56.1514 437.166H48.5889C48.6104 438.061 48.8538 438.759 49.3193 439.261C49.7848 439.755 50.3649 440.002 51.0596 440.002C51.5322 440.002 51.9297 439.873 52.252 439.615C52.5742 439.357 52.8177 438.942 52.9824 438.369ZM53.1543 435.318C53.1328 434.445 52.9072 433.782 52.4775 433.331C52.0479 432.873 51.5251 432.644 50.9092 432.644C50.2503 432.644 49.7061 432.883 49.2764 433.363C48.8467 433.843 48.6354 434.495 48.6426 435.318H53.1543ZM68.5693 433.965L65.5938 434.502C65.4935 433.908 65.2643 433.46 64.9062 433.159C64.5553 432.858 64.097 432.708 63.5312 432.708C62.7793 432.708 62.1777 432.969 61.7266 433.492C61.2826 434.008 61.0605 434.874 61.0605 436.092C61.0605 437.445 61.2861 438.401 61.7373 438.96C62.1956 439.519 62.8079 439.798 63.5742 439.798C64.1471 439.798 64.6162 439.637 64.9814 439.314C65.3467 438.985 65.6045 438.423 65.7549 437.628L68.7197 438.133C68.4118 439.493 67.821 440.521 66.9473 441.216C66.0736 441.91 64.9027 442.258 63.4346 442.258C61.766 442.258 60.4339 441.731 59.4385 440.679C58.4502 439.626 57.9561 438.169 57.9561 436.307C57.9561 434.423 58.4538 432.959 59.4492 431.913C60.4447 430.86 61.791 430.334 63.4883 430.334C64.8776 430.334 65.9805 430.635 66.7969 431.236C67.6204 431.831 68.2113 432.74 68.5693 433.965ZM76.0996 430.592V432.998H74.0371V437.596C74.0371 438.527 74.055 439.071 74.0908 439.229C74.1338 439.379 74.2233 439.504 74.3594 439.604C74.5026 439.705 74.6745 439.755 74.875 439.755C75.1543 439.755 75.5589 439.658 76.0889 439.465L76.3467 441.807C75.6449 442.107 74.8499 442.258 73.9619 442.258C73.4176 442.258 72.9271 442.168 72.4902 441.989C72.0534 441.803 71.7311 441.567 71.5234 441.28C71.3229 440.987 71.1833 440.593 71.1045 440.099C71.04 439.748 71.0078 439.039 71.0078 437.972V432.998H69.6221V430.592H71.0078V428.325L74.0371 426.563V430.592H76.0996ZM81.084 442H78.0654V430.592H80.8691V432.214C81.349 431.448 81.7786 430.943 82.1582 430.699C82.5449 430.456 82.9818 430.334 83.4688 430.334C84.1562 430.334 84.8187 430.524 85.4561 430.903L84.5215 433.535C84.013 433.206 83.5404 433.041 83.1035 433.041C82.681 433.041 82.3229 433.159 82.0293 433.396C81.7357 433.625 81.5029 434.044 81.3311 434.652C81.1663 435.261 81.084 436.536 81.084 438.477V442ZM86.7666 429.045V426.252H89.7852V429.045H86.7666ZM86.7666 442V430.592H89.7852V442H86.7666ZM102.837 433.965L99.8613 434.502C99.7611 433.908 99.5319 433.46 99.1738 433.159C98.8229 432.858 98.3646 432.708 97.7988 432.708C97.0469 432.708 96.4453 432.969 95.9941 433.492C95.5501 434.008 95.3281 434.874 95.3281 436.092C95.3281 437.445 95.5537 438.401 96.0049 438.96C96.4632 439.519 97.0755 439.798 97.8418 439.798C98.4147 439.798 98.8838 439.637 99.249 439.314C99.6143 438.985 99.8721 438.423 100.022 437.628L102.987 438.133C102.679 439.493 102.089 440.521 101.215 441.216C100.341 441.91 99.1702 442.258 97.7021 442.258C96.0335 442.258 94.7015 441.731 93.7061 440.679C92.7178 439.626 92.2236 438.169 92.2236 436.307C92.2236 434.423 92.7214 432.959 93.7168 431.913C94.7122 430.86 96.0586 430.334 97.7559 430.334C99.1452 430.334 100.248 430.635 101.064 431.236C101.888 431.831 102.479 432.74 102.837 433.965ZM107.392 434.072L104.652 433.578C104.96 432.475 105.49 431.659 106.242 431.129C106.994 430.599 108.111 430.334 109.594 430.334C110.94 430.334 111.943 430.495 112.602 430.817C113.26 431.132 113.722 431.537 113.987 432.031C114.259 432.518 114.396 433.417 114.396 434.728L114.363 438.251C114.363 439.254 114.41 439.995 114.503 440.475C114.603 440.947 114.786 441.456 115.051 442H112.064C111.986 441.799 111.889 441.502 111.774 441.108C111.724 440.929 111.688 440.811 111.667 440.754C111.151 441.255 110.6 441.631 110.013 441.882C109.425 442.132 108.799 442.258 108.133 442.258C106.958 442.258 106.031 441.939 105.351 441.302C104.677 440.664 104.341 439.859 104.341 438.885C104.341 438.24 104.495 437.667 104.803 437.166C105.111 436.658 105.54 436.271 106.092 436.006C106.65 435.734 107.452 435.497 108.498 435.297C109.909 435.032 110.886 434.785 111.431 434.556V434.255C111.431 433.675 111.287 433.263 111.001 433.02C110.715 432.769 110.174 432.644 109.379 432.644C108.842 432.644 108.423 432.751 108.122 432.966C107.821 433.174 107.578 433.542 107.392 434.072ZM111.431 436.521C111.044 436.65 110.432 436.804 109.594 436.983C108.756 437.162 108.208 437.338 107.95 437.51C107.556 437.789 107.359 438.144 107.359 438.573C107.359 438.996 107.517 439.361 107.832 439.669C108.147 439.977 108.548 440.131 109.035 440.131C109.579 440.131 110.099 439.952 110.593 439.594C110.958 439.322 111.198 438.989 111.312 438.595C111.391 438.337 111.431 437.846 111.431 437.123V436.521ZM117.382 442V426.252H120.4V442H117.382Z" fill="white"/>
<path d="M265.383 434.062L258.681 442.56C258.218 443.147 257.469 443.147 257.01 442.56L255.897 441.147C255.434 440.56 255.434 439.61 255.897 439.029L260.647 433.006L255.897 426.983C255.434 426.396 255.434 425.446 255.897 424.865L257.006 423.44C257.469 422.853 258.218 422.853 258.676 423.44L265.378 431.938C265.846 432.525 265.846 433.475 265.383 434.062Z" fill="#F1F1F1"/>
<path d="M25.6113 476.252H31.9062C33.1523 476.252 34.0798 476.306 34.6885 476.413C35.3044 476.513 35.8522 476.728 36.332 477.058C36.819 477.387 37.2236 477.827 37.5459 478.379C37.8682 478.923 38.0293 479.535 38.0293 480.216C38.0293 480.953 37.8288 481.63 37.4277 482.246C37.0339 482.862 36.4967 483.324 35.8164 483.632C36.776 483.911 37.5137 484.387 38.0293 485.061C38.5449 485.734 38.8027 486.525 38.8027 487.435C38.8027 488.151 38.6344 488.849 38.2979 489.529C37.9684 490.202 37.5137 490.743 36.9336 491.151C36.3607 491.552 35.6517 491.799 34.8066 491.893C34.2767 491.95 32.9984 491.986 30.9717 492H25.6113V476.252ZM28.791 478.873V482.515H30.875C32.1139 482.515 32.8838 482.497 33.1846 482.461C33.7288 482.396 34.1549 482.21 34.4629 481.902C34.778 481.587 34.9355 481.175 34.9355 480.667C34.9355 480.18 34.7995 479.786 34.5273 479.485C34.2624 479.177 33.8649 478.991 33.335 478.927C33.0199 478.891 32.1139 478.873 30.6172 478.873H28.791ZM28.791 485.136V489.347H31.7344C32.8802 489.347 33.6071 489.314 33.915 489.25C34.3877 489.164 34.7708 488.956 35.0645 488.627C35.3652 488.29 35.5156 487.843 35.5156 487.284C35.5156 486.812 35.401 486.41 35.1719 486.081C34.9427 485.752 34.6097 485.512 34.1729 485.361C33.7432 485.211 32.805 485.136 31.3584 485.136H28.791ZM48.9863 492V490.292C48.571 490.901 48.0231 491.381 47.3428 491.731C46.6696 492.082 45.957 492.258 45.2051 492.258C44.4388 492.258 43.7513 492.09 43.1426 491.753C42.5339 491.416 42.0934 490.944 41.8213 490.335C41.5492 489.726 41.4131 488.885 41.4131 487.811V480.592H44.4316V485.834C44.4316 487.438 44.4854 488.423 44.5928 488.788C44.7074 489.146 44.9115 489.433 45.2051 489.647C45.4987 489.855 45.8711 489.959 46.3223 489.959C46.8379 489.959 47.2998 489.819 47.708 489.54C48.1162 489.254 48.3955 488.903 48.5459 488.487C48.6963 488.065 48.7715 487.037 48.7715 485.404V480.592H51.79V492H48.9863ZM54.9268 479.045V476.252H57.9453V479.045H54.9268ZM54.9268 492V480.592H57.9453V492H54.9268ZM61.0498 492V476.252H64.0684V492H61.0498ZM77.6357 492H74.832V490.324C74.3665 490.976 73.8151 491.463 73.1777 491.785C72.5475 492.1 71.9102 492.258 71.2656 492.258C69.9551 492.258 68.8307 491.731 67.8926 490.679C66.9616 489.619 66.4961 488.144 66.4961 486.253C66.4961 484.319 66.9508 482.851 67.8604 481.849C68.7699 480.839 69.9193 480.334 71.3086 480.334C72.5833 480.334 73.6862 480.864 74.6172 481.924V476.252H77.6357V492ZM69.5791 486.049C69.5791 487.266 69.7474 488.147 70.084 488.691C70.571 489.479 71.2513 489.873 72.125 489.873C72.8197 489.873 73.4105 489.579 73.8975 488.992C74.3844 488.398 74.6279 487.513 74.6279 486.339C74.6279 485.028 74.3916 484.087 73.9189 483.514C73.4463 482.934 72.8411 482.644 72.1035 482.644C71.3874 482.644 70.7858 482.93 70.2988 483.503C69.819 484.069 69.5791 484.917 69.5791 486.049ZM80.6221 479.045V476.252H83.6406V479.045H80.6221ZM80.6221 492V480.592H83.6406V492H80.6221ZM97.1221 492H94.1035V486.178C94.1035 484.946 94.0391 484.151 93.9102 483.793C93.7812 483.428 93.57 483.145 93.2764 482.944C92.9899 482.744 92.6426 482.644 92.2344 482.644C91.7116 482.644 91.2425 482.787 90.8271 483.073C90.4118 483.36 90.1253 483.739 89.9678 484.212C89.8174 484.685 89.7422 485.558 89.7422 486.833V492H86.7236V480.592H89.5273V482.268C90.5228 480.979 91.776 480.334 93.2871 480.334C93.9531 480.334 94.5618 480.456 95.1133 480.699C95.6647 480.936 96.0801 481.24 96.3594 481.612C96.6458 481.985 96.8428 482.407 96.9502 482.88C97.0648 483.353 97.1221 484.029 97.1221 484.91V492ZM99.915 492.752L103.363 493.171C103.421 493.572 103.553 493.848 103.761 493.998C104.047 494.213 104.498 494.32 105.114 494.32C105.902 494.32 106.493 494.202 106.887 493.966C107.152 493.808 107.352 493.554 107.488 493.203C107.581 492.952 107.628 492.491 107.628 491.817V490.152C106.726 491.384 105.587 492 104.212 492C102.679 492 101.465 491.352 100.57 490.056C99.8685 489.032 99.5176 487.757 99.5176 486.231C99.5176 484.319 99.9759 482.858 100.893 481.849C101.816 480.839 102.962 480.334 104.33 480.334C105.741 480.334 106.905 480.953 107.821 482.192V480.592H110.646V490.829C110.646 492.175 110.535 493.182 110.313 493.848C110.091 494.514 109.78 495.036 109.379 495.416C108.978 495.796 108.441 496.093 107.768 496.308C107.102 496.522 106.257 496.63 105.232 496.63C103.299 496.63 101.927 496.297 101.118 495.631C100.309 494.972 99.9043 494.134 99.9043 493.117C99.9043 493.017 99.9079 492.895 99.915 492.752ZM102.611 486.06C102.611 487.27 102.844 488.158 103.31 488.724C103.782 489.282 104.362 489.562 105.05 489.562C105.787 489.562 106.41 489.275 106.919 488.702C107.427 488.122 107.682 487.266 107.682 486.135C107.682 484.953 107.438 484.076 106.951 483.503C106.464 482.93 105.848 482.644 105.104 482.644C104.38 482.644 103.782 482.926 103.31 483.492C102.844 484.051 102.611 484.907 102.611 486.06ZM123.333 492V478.916H118.66V476.252H131.175V478.916H126.513V492H123.333ZM130.885 486.135C130.885 485.132 131.132 484.162 131.626 483.224C132.12 482.285 132.818 481.569 133.721 481.075C134.63 480.581 135.644 480.334 136.761 480.334C138.487 480.334 139.901 480.896 141.004 482.021C142.107 483.138 142.658 484.552 142.658 486.264C142.658 487.99 142.1 489.422 140.982 490.561C139.872 491.692 138.472 492.258 136.782 492.258C135.737 492.258 134.738 492.021 133.785 491.549C132.84 491.076 132.12 490.385 131.626 489.476C131.132 488.559 130.885 487.445 130.885 486.135ZM133.979 486.296C133.979 487.427 134.247 488.294 134.784 488.896C135.321 489.497 135.984 489.798 136.771 489.798C137.559 489.798 138.218 489.497 138.748 488.896C139.285 488.294 139.554 487.42 139.554 486.274C139.554 485.157 139.285 484.298 138.748 483.696C138.218 483.095 137.559 482.794 136.771 482.794C135.984 482.794 135.321 483.095 134.784 483.696C134.247 484.298 133.979 485.164 133.979 486.296ZM144.334 486.135C144.334 485.132 144.581 484.162 145.075 483.224C145.569 482.285 146.268 481.569 147.17 481.075C148.079 480.581 149.093 480.334 150.21 480.334C151.936 480.334 153.35 480.896 154.453 482.021C155.556 483.138 156.107 484.552 156.107 486.264C156.107 487.99 155.549 489.422 154.432 490.561C153.322 491.692 151.922 492.258 150.231 492.258C149.186 492.258 148.187 492.021 147.234 491.549C146.289 491.076 145.569 490.385 145.075 489.476C144.581 488.559 144.334 487.445 144.334 486.135ZM147.428 486.296C147.428 487.427 147.696 488.294 148.233 488.896C148.771 489.497 149.433 489.798 150.221 489.798C151.008 489.798 151.667 489.497 152.197 488.896C152.734 488.294 153.003 487.42 153.003 486.274C153.003 485.157 152.734 484.298 152.197 483.696C151.667 483.095 151.008 482.794 150.221 482.794C149.433 482.794 148.771 483.095 148.233 483.696C147.696 484.298 147.428 485.164 147.428 486.296ZM158.481 492V476.252H161.5V492H158.481ZM163.541 488.745L166.57 488.283C166.699 488.87 166.961 489.318 167.354 489.626C167.748 489.927 168.3 490.077 169.009 490.077C169.789 490.077 170.377 489.934 170.771 489.647C171.035 489.447 171.168 489.178 171.168 488.842C171.168 488.613 171.096 488.423 170.953 488.272C170.803 488.129 170.466 487.997 169.943 487.875C167.508 487.338 165.965 486.847 165.313 486.403C164.411 485.787 163.96 484.932 163.96 483.836C163.96 482.848 164.35 482.017 165.131 481.344C165.911 480.671 167.122 480.334 168.762 480.334C170.323 480.334 171.483 480.588 172.242 481.097C173.001 481.605 173.524 482.357 173.811 483.353L170.964 483.879C170.842 483.435 170.609 483.095 170.266 482.858C169.929 482.622 169.446 482.504 168.815 482.504C168.021 482.504 167.451 482.615 167.107 482.837C166.878 482.994 166.764 483.199 166.764 483.449C166.764 483.664 166.864 483.847 167.064 483.997C167.337 484.198 168.275 484.48 169.879 484.846C171.49 485.211 172.615 485.659 173.252 486.188C173.882 486.726 174.197 487.474 174.197 488.434C174.197 489.479 173.76 490.378 172.887 491.13C172.013 491.882 170.72 492.258 169.009 492.258C167.455 492.258 166.223 491.943 165.313 491.312C164.411 490.682 163.82 489.826 163.541 488.745Z" fill="white"/>
<path d="M265.383 484.062L258.681 492.56C258.218 493.147 257.469 493.147 257.01 492.56L255.897 491.147C255.434 490.56 255.434 489.61 255.897 489.029L260.647 483.006L255.897 476.983C255.434 476.396 255.434 475.446 255.897 474.865L257.006 473.44C257.469 472.853 258.218 472.853 258.676 473.44L265.378 481.938C265.846 482.525 265.846 483.475 265.383 484.062Z" fill="#F1F1F1"/>
<path d="M25.6221 542V526.252H36.418V528.916H28.8018V532.644H35.376V535.308H28.8018V542H25.6221ZM38.3301 536.135C38.3301 535.132 38.5771 534.162 39.0713 533.224C39.5654 532.285 40.2637 531.569 41.166 531.075C42.0755 530.581 43.0889 530.334 44.2061 530.334C45.932 530.334 47.3464 530.896 48.4492 532.021C49.5521 533.138 50.1035 534.552 50.1035 536.264C50.1035 537.99 49.5449 539.422 48.4277 540.561C47.3177 541.692 45.9176 542.258 44.2275 542.258C43.182 542.258 42.1829 542.021 41.2305 541.549C40.2852 541.076 39.5654 540.385 39.0713 539.476C38.5771 538.559 38.3301 537.445 38.3301 536.135ZM41.4238 536.296C41.4238 537.427 41.6924 538.294 42.2295 538.896C42.7666 539.497 43.429 539.798 44.2168 539.798C45.0046 539.798 45.6634 539.497 46.1934 538.896C46.7305 538.294 46.999 537.42 46.999 536.274C46.999 535.157 46.7305 534.298 46.1934 533.696C45.6634 533.095 45.0046 532.794 44.2168 532.794C43.429 532.794 42.7666 533.095 42.2295 533.696C41.6924 534.298 41.4238 535.164 41.4238 536.296ZM51.7793 536.135C51.7793 535.132 52.0264 534.162 52.5205 533.224C53.0146 532.285 53.7129 531.569 54.6152 531.075C55.5247 530.581 56.5381 530.334 57.6553 530.334C59.3812 530.334 60.7956 530.896 61.8984 532.021C63.0013 533.138 63.5527 534.552 63.5527 536.264C63.5527 537.99 62.9941 539.422 61.877 540.561C60.7669 541.692 59.3669 542.258 57.6768 542.258C56.6312 542.258 55.6322 542.021 54.6797 541.549C53.7344 541.076 53.0146 540.385 52.5205 539.476C52.0264 538.559 51.7793 537.445 51.7793 536.135ZM54.873 536.296C54.873 537.427 55.1416 538.294 55.6787 538.896C56.2158 539.497 56.8783 539.798 57.666 539.798C58.4538 539.798 59.1126 539.497 59.6426 538.896C60.1797 538.294 60.4482 537.42 60.4482 536.274C60.4482 535.157 60.1797 534.298 59.6426 533.696C59.1126 533.095 58.4538 532.794 57.666 532.794C56.8783 532.794 56.2158 533.095 55.6787 533.696C55.1416 534.298 54.873 535.164 54.873 536.296ZM76.3896 542H73.5859V540.324C73.1204 540.976 72.569 541.463 71.9316 541.785C71.3014 542.1 70.6641 542.258 70.0195 542.258C68.709 542.258 67.5846 541.731 66.6465 540.679C65.7155 539.619 65.25 538.144 65.25 536.253C65.25 534.319 65.7048 532.851 66.6143 531.849C67.5238 530.839 68.6732 530.334 70.0625 530.334C71.3372 530.334 72.4401 530.864 73.3711 531.924V526.252H76.3896V542ZM68.333 536.049C68.333 537.266 68.5013 538.147 68.8379 538.691C69.3249 539.479 70.0052 539.873 70.8789 539.873C71.5736 539.873 72.1644 539.579 72.6514 538.992C73.1383 538.398 73.3818 537.513 73.3818 536.339C73.3818 535.028 73.1455 534.087 72.6729 533.514C72.2002 532.934 71.5951 532.644 70.8574 532.644C70.1413 532.644 69.5397 532.93 69.0527 533.503C68.5729 534.069 68.333 534.917 68.333 536.049ZM78.3125 538.745L81.3418 538.283C81.4707 538.87 81.7321 539.318 82.126 539.626C82.5199 539.927 83.0713 540.077 83.7803 540.077C84.5609 540.077 85.1481 539.934 85.542 539.647C85.807 539.447 85.9395 539.178 85.9395 538.842C85.9395 538.613 85.8678 538.423 85.7246 538.272C85.5742 538.129 85.2376 537.997 84.7148 537.875C82.2799 537.338 80.7367 536.847 80.085 536.403C79.1826 535.787 78.7314 534.932 78.7314 533.836C78.7314 532.848 79.1217 532.017 79.9023 531.344C80.6829 530.671 81.8932 530.334 83.5332 530.334C85.0944 530.334 86.2546 530.588 87.0137 531.097C87.7728 531.605 88.2956 532.357 88.582 533.353L85.7354 533.879C85.6136 533.435 85.3809 533.095 85.0371 532.858C84.7005 532.622 84.2171 532.504 83.5869 532.504C82.792 532.504 82.2227 532.615 81.8789 532.837C81.6497 532.994 81.5352 533.199 81.5352 533.449C81.5352 533.664 81.6354 533.847 81.8359 533.997C82.1081 534.198 83.0462 534.48 84.6504 534.846C86.2617 535.211 87.3861 535.659 88.0234 536.188C88.6536 536.726 88.9688 537.474 88.9688 538.434C88.9688 539.479 88.5319 540.378 87.6582 541.13C86.7845 541.882 85.4919 542.258 83.7803 542.258C82.2262 542.258 80.9945 541.943 80.085 541.312C79.1826 540.682 78.5918 539.826 78.3125 538.745Z" fill="white"/>
<path d="M265.383 534.062L258.681 542.56C258.218 543.147 257.469 543.147 257.01 542.56L255.897 541.147C255.434 540.56 255.434 539.61 255.897 539.029L260.647 533.006L255.897 526.983C255.434 526.396 255.434 525.446 255.897 524.865L257.006 523.44C257.469 522.853 258.218 522.853 258.676 523.44L265.378 531.938C265.846 532.525 265.846 533.475 265.383 534.062Z" fill="#F1F1F1"/>
<path d="M25.5898 576.252H31.4014C32.7119 576.252 33.7109 576.352 34.3984 576.553C35.3223 576.825 36.1136 577.308 36.7725 578.003C37.4313 578.698 37.9326 579.55 38.2764 580.56C38.6201 581.562 38.792 582.801 38.792 584.276C38.792 585.573 38.6309 586.69 38.3086 587.628C37.9147 588.774 37.3525 589.701 36.6221 590.41C36.0706 590.947 35.3258 591.366 34.3877 591.667C33.6859 591.889 32.7477 592 31.5732 592H25.5898V576.252ZM28.7695 578.916V589.347H31.1436C32.0316 589.347 32.6725 589.297 33.0664 589.196C33.582 589.067 34.0081 588.849 34.3447 588.541C34.6885 588.233 34.9678 587.728 35.1826 587.026C35.3975 586.317 35.5049 585.354 35.5049 584.137C35.5049 582.919 35.3975 581.985 35.1826 581.333C34.9678 580.681 34.667 580.173 34.2803 579.808C33.8936 579.442 33.403 579.195 32.8086 579.066C32.3646 578.966 31.4945 578.916 30.1982 578.916H28.7695ZM44.3672 592H41.3486V580.592H44.1523V582.214C44.6322 581.448 45.0618 580.943 45.4414 580.699C45.8281 580.456 46.265 580.334 46.752 580.334C47.4395 580.334 48.1019 580.524 48.7393 580.903L47.8047 583.535C47.2962 583.206 46.8236 583.041 46.3867 583.041C45.9642 583.041 45.6061 583.159 45.3125 583.396C45.0189 583.625 44.7861 584.044 44.6143 584.652C44.4495 585.261 44.3672 586.536 44.3672 588.477V592ZM50.0498 579.045V576.252H53.0684V579.045H50.0498ZM50.0498 592V580.592H53.0684V592H50.0498ZM66.5498 592H63.5312V586.178C63.5312 584.946 63.4668 584.151 63.3379 583.793C63.209 583.428 62.9977 583.145 62.7041 582.944C62.4176 582.744 62.0703 582.644 61.6621 582.644C61.1393 582.644 60.6702 582.787 60.2549 583.073C59.8395 583.36 59.5531 583.739 59.3955 584.212C59.2451 584.685 59.1699 585.558 59.1699 586.833V592H56.1514V580.592H58.9551V582.268C59.9505 580.979 61.2038 580.334 62.7148 580.334C63.3809 580.334 63.9896 580.456 64.541 580.699C65.0924 580.936 65.5078 581.24 65.7871 581.612C66.0736 581.985 66.2705 582.407 66.3779 582.88C66.4925 583.353 66.5498 584.029 66.5498 584.91V592ZM69.5146 592V576.252H72.5332V584.609L76.0674 580.592H79.7842L75.8848 584.76L80.0635 592H76.8086L73.9404 586.876L72.5332 588.348V592H69.5146ZM80.8047 588.745L83.834 588.283C83.9629 588.87 84.2243 589.318 84.6182 589.626C85.012 589.927 85.5635 590.077 86.2725 590.077C87.0531 590.077 87.6403 589.934 88.0342 589.647C88.2992 589.447 88.4316 589.178 88.4316 588.842C88.4316 588.613 88.36 588.423 88.2168 588.272C88.0664 588.129 87.7298 587.997 87.207 587.875C84.7721 587.338 83.2288 586.847 82.5771 586.403C81.6748 585.787 81.2236 584.932 81.2236 583.836C81.2236 582.848 81.6139 582.017 82.3945 581.344C83.1751 580.671 84.3854 580.334 86.0254 580.334C87.5866 580.334 88.7467 580.588 89.5059 581.097C90.265 581.605 90.7878 582.357 91.0742 583.353L88.2275 583.879C88.1058 583.435 87.873 583.095 87.5293 582.858C87.1927 582.622 86.7093 582.504 86.0791 582.504C85.2842 582.504 84.7148 582.615 84.3711 582.837C84.1419 582.994 84.0273 583.199 84.0273 583.449C84.0273 583.664 84.1276 583.847 84.3281 583.997C84.6003 584.198 85.5384 584.48 87.1426 584.846C88.7539 585.211 89.8783 585.659 90.5156 586.188C91.1458 586.726 91.4609 587.474 91.4609 588.434C91.4609 589.479 91.0241 590.378 90.1504 591.13C89.2767 591.882 87.984 592.258 86.2725 592.258C84.7184 592.258 83.4867 591.943 82.5771 591.312C81.6748 590.682 81.084 589.826 80.8047 588.745Z" fill="white"/>
<path d="M265.383 584.062L258.681 592.56C258.218 593.147 257.469 593.147 257.01 592.56L255.897 591.147C255.434 590.56 255.434 589.61 255.897 589.029L260.647 583.006L255.897 576.983C255.434 576.396 255.434 575.446 255.897 574.865L257.006 573.44C257.469 572.853 258.218 572.853 258.676 573.44L265.378 581.938C265.846 582.525 265.846 583.475 265.383 584.062Z" fill="#F1F1F1"/>
</svg>
