<svg width="39" height="41" viewBox="0 0 39 41" fill="none" xmlns="http://www.w3.org/2000/svg">
<g filter="url(#filter0_d_66_3629)">
<circle cx="15.5" cy="17.5" r="15.5" fill="white"/>
<circle cx="15.5" cy="17.5" r="15" stroke="#E4E4E4"/>
</g>
<path d="M7.808 23C7.952 23 8.192 22.888 8.528 22.664C8.864 22.44 9.248 22.08 9.68 21.584C9.984 21.216 10.344 20.784 10.76 20.288C11.176 19.776 11.592 19.256 12.008 18.728C12.44 18.2 12.808 17.744 13.112 17.36C12.856 17.072 12.568 16.744 12.248 16.376C11.928 16.008 11.6 15.632 11.264 15.248C10.944 14.864 10.624 14.504 10.304 14.168C10 13.816 9.736 13.512 9.512 13.256C9.032 12.712 8.648 12.328 8.36 12.104C8.072 11.88 7.888 11.768 7.808 11.768H12.992C12.88 11.784 12.84 11.904 12.872 12.128C12.92 12.352 13.128 12.728 13.496 13.256C13.656 13.48 13.84 13.736 14.048 14.024C14.256 14.312 14.464 14.6 14.672 14.888C14.88 15.176 15.056 15.424 15.2 15.632H15.248C15.376 15.44 15.528 15.208 15.704 14.936C15.896 14.664 16.096 14.376 16.304 14.072C16.512 13.768 16.704 13.48 16.88 13.208C17.216 12.68 17.4 12.312 17.432 12.104C17.48 11.88 17.456 11.768 17.36 11.768H22.616C22.472 11.768 22.24 11.88 21.92 12.104C21.6 12.312 21.216 12.672 20.768 13.184C20.464 13.536 20.088 13.968 19.64 14.48C19.208 14.976 18.776 15.48 18.344 15.992C17.912 16.504 17.528 16.96 17.192 17.36C17.608 17.824 18.024 18.288 18.44 18.752C18.856 19.2 19.264 19.656 19.664 20.12C20.08 20.584 20.496 21.048 20.912 21.512C21.392 22.056 21.776 22.44 22.064 22.664C22.368 22.888 22.56 23 22.64 23H17.456C17.568 23 17.608 22.888 17.576 22.664C17.544 22.44 17.344 22.056 16.976 21.512C16.816 21.256 16.624 20.976 16.4 20.672C16.176 20.368 15.952 20.064 15.728 19.76C15.504 19.456 15.312 19.2 15.152 18.992H15.104C14.976 19.2 14.816 19.456 14.624 19.76C14.448 20.064 14.256 20.376 14.048 20.696C13.856 21.016 13.672 21.304 13.496 21.56C13.144 22.088 12.944 22.464 12.896 22.688C12.848 22.896 12.88 23 12.992 23H7.808Z" fill="#626060"/>
<defs>
<filter id="filter0_d_66_3629" x="0" y="2" width="39" height="39" filterUnits="userSpaceOnUse" color-interpolation-filters="sRGB">
<feFlood flood-opacity="0" result="BackgroundImageFix"/>
<feColorMatrix in="SourceAlpha" type="matrix" values="0 0 0 0 0 0 0 0 0 0 0 0 0 0 0 0 0 0 127 0" result="hardAlpha"/>
<feOffset dx="4" dy="4"/>
<feGaussianBlur stdDeviation="2"/>
<feComposite in2="hardAlpha" operator="out"/>
<feColorMatrix type="matrix" values="0 0 0 0 0 0 0 0 0 0 0 0 0 0 0 0 0 0 0.25 0"/>
<feBlend mode="normal" in2="BackgroundImageFix" result="effect1_dropShadow_66_3629"/>
<feBlend mode="normal" in="SourceGraphic" in2="effect1_dropShadow_66_3629" result="shape"/>
</filter>
</defs>
</svg>
