<svg width="1440" height="43" viewBox="0 0 1440 43" fill="none" xmlns="http://www.w3.org/2000/svg">
<rect width="1440" height="43" fill="white"/>
<path d="M145 0H1296V43H145V0Z" fill="#FFFDFD"/>
<path d="M174.611 13.252H180.906C182.152 13.252 183.08 13.3057 183.688 13.4131C184.304 13.5133 184.852 13.7282 185.332 14.0576C185.819 14.387 186.224 14.8275 186.546 15.3789C186.868 15.9232 187.029 16.5355 187.029 17.2158C187.029 17.9535 186.829 18.6302 186.428 19.2461C186.034 19.862 185.497 20.3239 184.816 20.6318C185.776 20.9111 186.514 21.3874 187.029 22.0605C187.545 22.7337 187.803 23.5251 187.803 24.4346C187.803 25.1507 187.634 25.849 187.298 26.5293C186.968 27.2025 186.514 27.7432 185.934 28.1514C185.361 28.5524 184.652 28.7995 183.807 28.8926C183.277 28.9499 181.998 28.9857 179.972 29H174.611V13.252ZM177.791 15.873V19.5146H179.875C181.114 19.5146 181.884 19.4967 182.185 19.4609C182.729 19.3965 183.155 19.2103 183.463 18.9023C183.778 18.5872 183.936 18.1755 183.936 17.667C183.936 17.18 183.799 16.7861 183.527 16.4854C183.262 16.1774 182.865 15.9912 182.335 15.9268C182.02 15.891 181.114 15.873 179.617 15.873H177.791ZM177.791 22.1357V26.3467H180.734C181.88 26.3467 182.607 26.3145 182.915 26.25C183.388 26.1641 183.771 25.9564 184.064 25.627C184.365 25.2904 184.516 24.8428 184.516 24.2842C184.516 23.8115 184.401 23.4105 184.172 23.0811C183.943 22.7516 183.61 22.5117 183.173 22.3613C182.743 22.2109 181.805 22.1357 180.358 22.1357H177.791ZM197.084 25.3691L200.092 25.874C199.705 26.9769 199.093 27.8184 198.255 28.3984C197.424 28.9714 196.382 29.2578 195.129 29.2578C193.145 29.2578 191.677 28.6097 190.725 27.3135C189.973 26.2751 189.597 24.9645 189.597 23.3818C189.597 21.4912 190.091 20.0124 191.079 18.9453C192.067 17.8711 193.317 17.334 194.828 17.334C196.525 17.334 197.865 17.8962 198.846 19.0205C199.827 20.1377 200.296 21.8529 200.253 24.166H192.69C192.712 25.0612 192.955 25.7594 193.421 26.2607C193.886 26.7549 194.466 27.002 195.161 27.002C195.634 27.002 196.031 26.873 196.354 26.6152C196.676 26.3574 196.919 25.9421 197.084 25.3691ZM197.256 22.3184C197.234 21.4447 197.009 20.7822 196.579 20.3311C196.149 19.8727 195.627 19.6436 195.011 19.6436C194.352 19.6436 193.808 19.8835 193.378 20.3633C192.948 20.8431 192.737 21.4948 192.744 22.3184H197.256ZM201.66 25.7451L204.689 25.2832C204.818 25.8704 205.08 26.318 205.474 26.626C205.868 26.9268 206.419 27.0771 207.128 27.0771C207.909 27.0771 208.496 26.9339 208.89 26.6475C209.155 26.4469 209.287 26.1784 209.287 25.8418C209.287 25.6126 209.215 25.4229 209.072 25.2725C208.922 25.1292 208.585 24.9967 208.062 24.875C205.628 24.3379 204.084 23.8473 203.433 23.4033C202.53 22.7874 202.079 21.9316 202.079 20.8359C202.079 19.8477 202.469 19.0169 203.25 18.3438C204.031 17.6706 205.241 17.334 206.881 17.334C208.442 17.334 209.602 17.5882 210.361 18.0967C211.12 18.6051 211.643 19.3571 211.93 20.3525L209.083 20.8789C208.961 20.4349 208.729 20.0947 208.385 19.8584C208.048 19.6221 207.565 19.5039 206.935 19.5039C206.14 19.5039 205.57 19.6149 205.227 19.8369C204.997 19.9945 204.883 20.1986 204.883 20.4492C204.883 20.6641 204.983 20.8467 205.184 20.9971C205.456 21.1976 206.394 21.4805 207.998 21.8457C209.609 22.2109 210.734 22.6585 211.371 23.1885C212.001 23.7256 212.316 24.474 212.316 25.4336C212.316 26.4792 211.88 27.3779 211.006 28.1299C210.132 28.8818 208.84 29.2578 207.128 29.2578C205.574 29.2578 204.342 28.9427 203.433 28.3125C202.53 27.6823 201.939 26.8265 201.66 25.7451ZM220.201 17.5918V19.998H218.139V24.5957C218.139 25.5267 218.157 26.071 218.192 26.2285C218.235 26.3789 218.325 26.5042 218.461 26.6045C218.604 26.7048 218.776 26.7549 218.977 26.7549C219.256 26.7549 219.66 26.6582 220.19 26.4648L220.448 28.8066C219.746 29.1074 218.951 29.2578 218.063 29.2578C217.519 29.2578 217.029 29.1683 216.592 28.9893C216.155 28.8031 215.833 28.5667 215.625 28.2803C215.424 27.9867 215.285 27.5928 215.206 27.0986C215.142 26.7477 215.109 26.0387 215.109 24.9717V19.998H213.724V17.5918H215.109V15.3252L218.139 13.5635V17.5918H220.201ZM221.232 25.7451L224.262 25.2832C224.391 25.8704 224.652 26.318 225.046 26.626C225.44 26.9268 225.991 27.0771 226.7 27.0771C227.481 27.0771 228.068 26.9339 228.462 26.6475C228.727 26.4469 228.859 26.1784 228.859 25.8418C228.859 25.6126 228.788 25.4229 228.645 25.2725C228.494 25.1292 228.158 24.9967 227.635 24.875C225.2 24.3379 223.657 23.8473 223.005 23.4033C222.103 22.7874 221.651 21.9316 221.651 20.8359C221.651 19.8477 222.042 19.0169 222.822 18.3438C223.603 17.6706 224.813 17.334 226.453 17.334C228.014 17.334 229.174 17.5882 229.934 18.0967C230.693 18.6051 231.215 19.3571 231.502 20.3525L228.655 20.8789C228.534 20.4349 228.301 20.0947 227.957 19.8584C227.62 19.6221 227.137 19.5039 226.507 19.5039C225.712 19.5039 225.143 19.6149 224.799 19.8369C224.57 19.9945 224.455 20.1986 224.455 20.4492C224.455 20.6641 224.555 20.8467 224.756 20.9971C225.028 21.1976 225.966 21.4805 227.57 21.8457C229.182 22.2109 230.306 22.6585 230.943 23.1885C231.574 23.7256 231.889 24.474 231.889 25.4336C231.889 26.4792 231.452 27.3779 230.578 28.1299C229.704 28.8818 228.412 29.2578 226.7 29.2578C225.146 29.2578 223.914 28.9427 223.005 28.3125C222.103 27.6823 221.512 26.8265 221.232 25.7451ZM241.148 25.3691L244.156 25.874C243.77 26.9769 243.157 27.8184 242.319 28.3984C241.489 28.9714 240.447 29.2578 239.193 29.2578C237.21 29.2578 235.742 28.6097 234.789 27.3135C234.037 26.2751 233.661 24.9645 233.661 23.3818C233.661 21.4912 234.155 20.0124 235.144 18.9453C236.132 17.8711 237.382 17.334 238.893 17.334C240.59 17.334 241.929 17.8962 242.91 19.0205C243.891 20.1377 244.36 21.8529 244.317 24.166H236.755C236.776 25.0612 237.02 25.7594 237.485 26.2607C237.951 26.7549 238.531 27.002 239.226 27.002C239.698 27.002 240.096 26.873 240.418 26.6152C240.74 26.3574 240.984 25.9421 241.148 25.3691ZM241.32 22.3184C241.299 21.4447 241.073 20.7822 240.644 20.3311C240.214 19.8727 239.691 19.6436 239.075 19.6436C238.416 19.6436 237.872 19.8835 237.442 20.3633C237.013 20.8431 236.801 21.4948 236.809 22.3184H241.32ZM246.788 29V13.252H249.807V29H246.788ZM252.911 29V13.252H255.93V29H252.911ZM265.641 25.3691L268.648 25.874C268.262 26.9769 267.649 27.8184 266.812 28.3984C265.981 28.9714 264.939 29.2578 263.686 29.2578C261.702 29.2578 260.234 28.6097 259.281 27.3135C258.529 26.2751 258.153 24.9645 258.153 23.3818C258.153 21.4912 258.647 20.0124 259.636 18.9453C260.624 17.8711 261.874 17.334 263.385 17.334C265.082 17.334 266.421 17.8962 267.402 19.0205C268.383 20.1377 268.853 21.8529 268.81 24.166H261.247C261.269 25.0612 261.512 25.7594 261.978 26.2607C262.443 26.7549 263.023 27.002 263.718 27.002C264.19 27.002 264.588 26.873 264.91 26.6152C265.232 26.3574 265.476 25.9421 265.641 25.3691ZM265.812 22.3184C265.791 21.4447 265.565 20.7822 265.136 20.3311C264.706 19.8727 264.183 19.6436 263.567 19.6436C262.909 19.6436 262.364 19.8835 261.935 20.3633C261.505 20.8431 261.294 21.4948 261.301 22.3184H265.812ZM274.17 29H271.151V17.5918H273.955V19.2139C274.435 18.4476 274.865 17.9427 275.244 17.6992C275.631 17.4557 276.068 17.334 276.555 17.334C277.242 17.334 277.905 17.5238 278.542 17.9033L277.607 20.5352C277.099 20.2057 276.626 20.041 276.189 20.041C275.767 20.041 275.409 20.1592 275.115 20.3955C274.822 20.6247 274.589 21.0436 274.417 21.6523C274.252 22.2611 274.17 23.5358 274.17 25.4766V29ZM278.789 25.7451L281.818 25.2832C281.947 25.8704 282.209 26.318 282.603 26.626C282.996 26.9268 283.548 27.0771 284.257 27.0771C285.037 27.0771 285.625 26.9339 286.019 26.6475C286.284 26.4469 286.416 26.1784 286.416 25.8418C286.416 25.6126 286.344 25.4229 286.201 25.2725C286.051 25.1292 285.714 24.9967 285.191 24.875C282.757 24.3379 281.213 23.8473 280.562 23.4033C279.659 22.7874 279.208 21.9316 279.208 20.8359C279.208 19.8477 279.598 19.0169 280.379 18.3438C281.16 17.6706 282.37 17.334 284.01 17.334C285.571 17.334 286.731 17.5882 287.49 18.0967C288.249 18.6051 288.772 19.3571 289.059 20.3525L286.212 20.8789C286.09 20.4349 285.857 20.0947 285.514 19.8584C285.177 19.6221 284.694 19.5039 284.063 19.5039C283.269 19.5039 282.699 19.6149 282.355 19.8369C282.126 19.9945 282.012 20.1986 282.012 20.4492C282.012 20.6641 282.112 20.8467 282.312 20.9971C282.585 21.1976 283.523 21.4805 285.127 21.8457C286.738 22.2109 287.863 22.6585 288.5 23.1885C289.13 23.7256 289.445 24.474 289.445 25.4336C289.445 26.4792 289.008 27.3779 288.135 28.1299C287.261 28.8818 285.968 29.2578 284.257 29.2578C282.703 29.2578 281.471 28.9427 280.562 28.3125C279.659 27.6823 279.068 26.8265 278.789 25.7451Z" fill="black"/>
<rect x="1145.5" y="6.5" width="130" height="30" rx="15" fill="white" stroke="#F0E36A"/>
<path d="M1162.58 23.2734L1164.83 23.0547C1164.96 23.8099 1165.24 24.3646 1165.65 24.7188C1166.07 25.0729 1166.62 25.25 1167.33 25.25C1168.07 25.25 1168.63 25.0938 1169.01 24.7812C1169.39 24.4635 1169.58 24.0938 1169.58 23.6719C1169.58 23.401 1169.5 23.1719 1169.34 22.9844C1169.18 22.7917 1168.9 22.625 1168.51 22.4844C1168.24 22.3906 1167.62 22.224 1166.66 21.9844C1165.42 21.6771 1164.55 21.2995 1164.05 20.8516C1163.34 20.2214 1162.99 19.4531 1162.99 18.5469C1162.99 17.9635 1163.16 17.4193 1163.48 16.9141C1163.82 16.4036 1164.29 16.0156 1164.91 15.75C1165.54 15.4844 1166.29 15.3516 1167.17 15.3516C1168.61 15.3516 1169.69 15.6667 1170.41 16.2969C1171.14 16.9271 1171.53 17.7682 1171.56 18.8203L1169.25 18.9219C1169.15 18.3333 1168.94 17.9115 1168.61 17.6562C1168.29 17.3958 1167.8 17.2656 1167.15 17.2656C1166.48 17.2656 1165.95 17.4036 1165.57 17.6797C1165.33 17.8568 1165.2 18.0938 1165.2 18.3906C1165.2 18.6615 1165.32 18.8932 1165.55 19.0859C1165.84 19.3307 1166.55 19.5859 1167.67 19.8516C1168.8 20.1172 1169.63 20.3932 1170.16 20.6797C1170.71 20.9609 1171.13 21.349 1171.43 21.8438C1171.74 22.3333 1171.89 22.9401 1171.89 23.6641C1171.89 24.3203 1171.71 24.9349 1171.34 25.5078C1170.98 26.0807 1170.46 26.5078 1169.8 26.7891C1169.13 27.0651 1168.3 27.2031 1167.3 27.2031C1165.86 27.2031 1164.74 26.8698 1163.97 26.2031C1163.19 25.5312 1162.73 24.5547 1162.58 23.2734ZM1176.01 15.5469V19.7578C1176.72 18.9297 1177.56 18.5156 1178.55 18.5156C1179.05 18.5156 1179.51 18.6094 1179.91 18.7969C1180.32 18.9844 1180.62 19.224 1180.83 19.5156C1181.04 19.8073 1181.18 20.1302 1181.25 20.4844C1181.33 20.8385 1181.37 21.388 1181.37 22.1328V27H1179.17V22.6172C1179.17 21.7474 1179.13 21.1953 1179.05 20.9609C1178.96 20.7266 1178.82 20.5417 1178.6 20.4062C1178.39 20.2656 1178.13 20.1953 1177.81 20.1953C1177.45 20.1953 1177.12 20.2839 1176.84 20.4609C1176.55 20.638 1176.34 20.9062 1176.2 21.2656C1176.07 21.6198 1176.01 22.1458 1176.01 22.8438V27H1173.81V15.5469H1176.01ZM1183.09 22.7344C1183.09 22.0052 1183.27 21.2995 1183.63 20.6172C1183.99 19.9349 1184.5 19.4141 1185.16 19.0547C1185.82 18.6953 1186.55 18.5156 1187.37 18.5156C1188.62 18.5156 1189.65 18.9245 1190.45 19.7422C1191.26 20.5547 1191.66 21.5833 1191.66 22.8281C1191.66 24.0833 1191.25 25.125 1190.44 25.9531C1189.63 26.776 1188.61 27.1875 1187.38 27.1875C1186.62 27.1875 1185.9 27.0156 1185.2 26.6719C1184.52 26.3281 1183.99 25.8255 1183.63 25.1641C1183.27 24.4974 1183.09 23.6875 1183.09 22.7344ZM1185.34 22.8516C1185.34 23.6745 1185.54 24.3047 1185.93 24.7422C1186.32 25.1797 1186.8 25.3984 1187.38 25.3984C1187.95 25.3984 1188.43 25.1797 1188.81 24.7422C1189.2 24.3047 1189.4 23.6693 1189.4 22.8359C1189.4 22.0234 1189.2 21.3984 1188.81 20.9609C1188.43 20.5234 1187.95 20.3047 1187.38 20.3047C1186.8 20.3047 1186.32 20.5234 1185.93 20.9609C1185.54 21.3984 1185.34 22.0286 1185.34 22.8516ZM1194.93 27L1192.3 18.7031H1194.44L1195.99 24.1406L1197.42 18.7031H1199.54L1200.92 24.1406L1202.51 18.7031H1204.67L1202.01 27H1199.9L1198.47 21.6641L1197.06 27H1194.93ZM1210.12 18.7031H1212.15V19.8359C1212.87 18.9557 1213.73 18.5156 1214.73 18.5156C1215.27 18.5156 1215.73 18.625 1216.12 18.8438C1216.51 19.0625 1216.83 19.3932 1217.08 19.8359C1217.44 19.3932 1217.84 19.0625 1218.26 18.8438C1218.68 18.625 1219.13 18.5156 1219.61 18.5156C1220.22 18.5156 1220.73 18.6406 1221.16 18.8906C1221.58 19.1354 1221.89 19.4974 1222.1 19.9766C1222.25 20.3307 1222.33 20.9036 1222.33 21.6953V27H1220.13V22.2578C1220.13 21.4349 1220.06 20.9036 1219.91 20.6641C1219.7 20.3516 1219.39 20.1953 1218.97 20.1953C1218.66 20.1953 1218.37 20.2891 1218.1 20.4766C1217.83 20.6641 1217.64 20.9401 1217.52 21.3047C1217.4 21.6641 1217.34 22.2344 1217.34 23.0156V27H1215.14V22.4531C1215.14 21.6458 1215.1 21.125 1215.02 20.8906C1214.95 20.6562 1214.82 20.4818 1214.66 20.3672C1214.49 20.2526 1214.27 20.1953 1213.99 20.1953C1213.65 20.1953 1213.35 20.2865 1213.08 20.4688C1212.81 20.651 1212.61 20.9141 1212.49 21.2578C1212.38 21.6016 1212.32 22.1719 1212.32 22.9688V27H1210.12V18.7031ZM1224.02 22.7344C1224.02 22.0052 1224.2 21.2995 1224.55 20.6172C1224.91 19.9349 1225.42 19.4141 1226.08 19.0547C1226.74 18.6953 1227.48 18.5156 1228.29 18.5156C1229.54 18.5156 1230.57 18.9245 1231.38 19.7422C1232.18 20.5547 1232.58 21.5833 1232.58 22.8281C1232.58 24.0833 1232.17 25.125 1231.36 25.9531C1230.55 26.776 1229.53 27.1875 1228.3 27.1875C1227.54 27.1875 1226.82 27.0156 1226.12 26.6719C1225.44 26.3281 1224.91 25.8255 1224.55 25.1641C1224.2 24.4974 1224.02 23.6875 1224.02 22.7344ZM1226.27 22.8516C1226.27 23.6745 1226.46 24.3047 1226.85 24.7422C1227.24 25.1797 1227.72 25.3984 1228.3 25.3984C1228.87 25.3984 1229.35 25.1797 1229.73 24.7422C1230.12 24.3047 1230.32 23.6693 1230.32 22.8359C1230.32 22.0234 1230.12 21.3984 1229.73 20.9609C1229.35 20.5234 1228.87 20.3047 1228.3 20.3047C1227.72 20.3047 1227.24 20.5234 1226.85 20.9609C1226.46 21.3984 1226.27 22.0286 1226.27 22.8516ZM1236.41 27H1234.21V18.7031H1236.25V19.8828C1236.6 19.3255 1236.91 18.9583 1237.19 18.7812C1237.47 18.6042 1237.79 18.5156 1238.14 18.5156C1238.64 18.5156 1239.12 18.6536 1239.59 18.9297L1238.91 20.8438C1238.54 20.6042 1238.19 20.4844 1237.88 20.4844C1237.57 20.4844 1237.31 20.5703 1237.09 20.7422C1236.88 20.9089 1236.71 21.2135 1236.59 21.6562C1236.47 22.099 1236.41 23.026 1236.41 24.4375V27ZM1245.34 24.3594L1247.53 24.7266C1247.25 25.5286 1246.8 26.1406 1246.2 26.5625C1245.59 26.9792 1244.83 27.1875 1243.92 27.1875C1242.48 27.1875 1241.41 26.7161 1240.72 25.7734C1240.17 25.0182 1239.9 24.0651 1239.9 22.9141C1239.9 21.5391 1240.26 20.4635 1240.98 19.6875C1241.7 18.9062 1242.6 18.5156 1243.7 18.5156C1244.94 18.5156 1245.91 18.9245 1246.62 19.7422C1247.34 20.5547 1247.68 21.8021 1247.65 23.4844H1242.15C1242.16 24.1354 1242.34 24.6432 1242.68 25.0078C1243.02 25.3672 1243.44 25.5469 1243.95 25.5469C1244.29 25.5469 1244.58 25.4531 1244.81 25.2656C1245.05 25.0781 1245.22 24.776 1245.34 24.3594ZM1245.47 22.1406C1245.45 21.5052 1245.29 21.0234 1244.98 20.6953C1244.66 20.362 1244.28 20.1953 1243.84 20.1953C1243.36 20.1953 1242.96 20.3698 1242.65 20.7188C1242.34 21.0677 1242.18 21.5417 1242.19 22.1406H1245.47ZM1249.45 27V24.8047H1251.64V27H1249.45ZM1253.9 27V24.8047H1256.09V27H1253.9ZM1258.35 27V24.8047H1260.55V27H1258.35Z" fill="black"/>
</svg>
