<svg width="30" height="29" viewBox="0 0 30 29" fill="none" xmlns="http://www.w3.org/2000/svg">
<path fill-rule="evenodd" clip-rule="evenodd" d="M22.3852 19.5277L29.0124 25.8724C29.6015 26.4364 29.6015 27.2823 29.0124 27.8463C28.7178 28.1283 28.276 28.2693 27.9815 28.2693C27.6869 28.2693 27.2451 28.1283 26.9506 27.8463L20.3234 21.5016C18.1143 23.0526 15.4635 24.0395 12.518 24.0395C5.5963 24.0395 0 18.6818 0 12.0552C0 5.42851 5.5963 0.0708008 12.518 0.0708008C19.4398 0.0708008 25.0361 5.42851 25.0361 12.0552C25.0361 14.875 24.0052 17.5539 22.3852 19.5277ZM12.5179 2.89062C7.21619 2.89062 2.94534 6.97939 2.94534 12.0551C2.94534 17.1308 7.21619 21.2196 12.5179 21.2196C15.1688 21.2196 17.5251 20.2326 19.2924 18.5407C21.0596 16.8488 22.0905 14.593 22.0905 12.0551C22.0905 6.97939 17.8197 2.89062 12.5179 2.89062Z" fill="#212529"/>
<mask id="mask0_44_1681" style="mask-type:luminance" maskUnits="userSpaceOnUse" x="0" y="0" width="30" height="29">
<path fill-rule="evenodd" clip-rule="evenodd" d="M22.3852 19.5277L29.0124 25.8724C29.6015 26.4364 29.6015 27.2823 29.0124 27.8463C28.7178 28.1283 28.276 28.2693 27.9815 28.2693C27.6869 28.2693 27.2451 28.1283 26.9506 27.8463L20.3234 21.5016C18.1143 23.0526 15.4635 24.0395 12.518 24.0395C5.5963 24.0395 0 18.6818 0 12.0552C0 5.42851 5.5963 0.0708008 12.518 0.0708008C19.4398 0.0708008 25.0361 5.42851 25.0361 12.0552C25.0361 14.875 24.0052 17.5539 22.3852 19.5277ZM12.5179 2.89062C7.21619 2.89062 2.94534 6.97939 2.94534 12.0551C2.94534 17.1308 7.21619 21.2196 12.5179 21.2196C15.1688 21.2196 17.5251 20.2326 19.2924 18.5407C21.0596 16.8488 22.0905 14.593 22.0905 12.0551C22.0905 6.97939 17.8197 2.89062 12.5179 2.89062Z" fill="white"/>
</mask>
<g mask="url(#mask0_44_1681)">
<path fill-rule="evenodd" clip-rule="evenodd" d="M-2.94531 -2.74902H32.3997V31.089H-2.94531V-2.74902Z" fill="#666C72"/>
</g>
</svg>
