<svg width="38" height="40" viewBox="0 0 38 40" fill="none" xmlns="http://www.w3.org/2000/svg">
<path fill-rule="evenodd" clip-rule="evenodd" d="M8.41577 9.97187C8.41577 4.38762 13.0445 0 18.9356 0C24.8267 0 29.4554 4.38762 29.4554 9.97187C29.4554 15.5561 24.8267 19.9437 18.9356 19.9437C13.0445 19.9437 8.41577 15.5561 8.41577 9.97187ZM37.8713 33.9045V37.8932C37.8713 39.0899 37.0298 39.8876 35.7674 39.8876C34.505 39.8876 33.6634 39.0899 33.6634 37.8932V33.9045C33.6634 30.514 30.9283 27.9213 27.3515 27.9213H10.5198C6.94308 27.9213 4.20793 30.514 4.20793 33.9045V37.8932C4.20793 39.0899 3.36634 39.8876 2.10396 39.8876C0.841585 39.8876 0 39.0899 0 37.8932V33.9045C0 28.3202 4.62872 23.9326 10.5198 23.9326H27.3515C33.2426 23.9326 37.8713 28.3202 37.8713 33.9045ZM18.9357 15.955C15.3589 15.955 12.6238 13.3623 12.6238 9.97185C12.6238 6.58142 15.3589 3.98874 18.9357 3.98874C22.5124 3.98874 25.2476 6.58142 25.2476 9.97185C25.2476 13.3623 22.5124 15.955 18.9357 15.955Z" fill="#212529"/>
<mask id="mask0_44_1691" style="mask-type:luminance" maskUnits="userSpaceOnUse" x="0" y="0" width="38" height="40">
<path fill-rule="evenodd" clip-rule="evenodd" d="M8.41577 9.97187C8.41577 4.38762 13.0445 0 18.9356 0C24.8267 0 29.4554 4.38762 29.4554 9.97187C29.4554 15.5561 24.8267 19.9437 18.9356 19.9437C13.0445 19.9437 8.41577 15.5561 8.41577 9.97187ZM37.8713 33.9045V37.8932C37.8713 39.0899 37.0298 39.8876 35.7674 39.8876C34.505 39.8876 33.6634 39.0899 33.6634 37.8932V33.9045C33.6634 30.514 30.9283 27.9213 27.3515 27.9213H10.5198C6.94308 27.9213 4.20793 30.514 4.20793 33.9045V37.8932C4.20793 39.0899 3.36634 39.8876 2.10396 39.8876C0.841585 39.8876 0 39.0899 0 37.8932V33.9045C0 28.3202 4.62872 23.9326 10.5198 23.9326H27.3515C33.2426 23.9326 37.8713 28.3202 37.8713 33.9045ZM18.9357 15.955C15.3589 15.955 12.6238 13.3623 12.6238 9.97185C12.6238 6.58142 15.3589 3.98874 18.9357 3.98874C22.5124 3.98874 25.2476 6.58142 25.2476 9.97185C25.2476 13.3623 22.5124 15.955 18.9357 15.955Z" fill="white"/>
</mask>
<g mask="url(#mask0_44_1691)">
<path fill-rule="evenodd" clip-rule="evenodd" d="M-6.31152 -3.98877H44.1835V43.8762H-6.31152V-3.98877Z" fill="#212529"/>
</g>
</svg>
